<svg width="538" height="306" viewBox="0 0 538 306" fill="none" xmlns="http://www.w3.org/2000/svg">
<path d="M243.274 284.376C233.352 271.956 227.718 253.374 226.376 228.642C225.042 204.05 228.633 185.04 237.154 171.616C245.676 158.192 258.667 151.005 276.136 150.055C293.602 149.107 307.299 154.848 317.221 167.269C327.143 179.695 332.774 198.202 334.109 222.794C335.444 247.389 331.853 266.429 323.336 279.924C314.819 293.42 301.826 300.64 284.362 301.59C266.893 302.538 253.202 296.802 243.277 284.376H243.274Z" fill="white"/>
<path d="M243.274 284.376C233.352 271.956 227.718 253.374 226.376 228.642C225.042 204.05 228.633 185.04 237.154 171.616C245.676 158.192 258.667 151.005 276.136 150.055C293.602 149.107 307.299 154.848 317.221 167.269C327.143 179.695 332.774 198.202 334.109 222.794C335.444 247.389 331.852 266.429 323.336 279.924C314.819 293.42 301.826 300.64 284.362 301.59C266.893 302.538 253.202 296.802 243.277 284.376H243.274Z" stroke="#225AEA" stroke-width="7.69847" stroke-miterlimit="10"/>
<path d="M303.249 266.197C307.105 257.232 308.521 243.245 307.49 224.241C306.451 205.099 303.529 191.349 298.734 182.99C293.936 174.631 286.784 170.712 277.284 171.226C267.782 171.743 261.099 176.45 257.241 185.346C253.378 194.247 251.964 208.196 252.996 227.198C254.027 246.202 256.943 259.952 261.751 268.449C266.555 276.947 273.709 280.938 283.211 280.421C292.711 279.907 299.391 275.164 303.249 266.195V266.197Z" fill="#E5EBFA"/>
<path d="M303.249 266.197C307.105 257.232 308.521 243.245 307.49 224.241C306.451 205.099 303.529 191.349 298.734 182.99C293.936 174.631 286.784 170.712 277.284 171.226C267.782 171.743 261.099 176.45 257.241 185.346C253.378 194.247 251.964 208.196 252.996 227.198C254.027 246.202 256.943 259.952 261.751 268.449C266.555 276.947 273.709 280.938 283.211 280.421C292.711 279.907 299.391 275.164 303.249 266.195V266.197Z" stroke="#225AEA" stroke-width="7.69847" stroke-miterlimit="10"/>
<path d="M363.716 226.485H190.036V228.8H363.716V226.485Z" fill="#225AEA"/>
<path d="M480.238 227.073H459.046C458.94 227.073 458.855 227.159 458.855 227.264V228.619C458.855 228.725 458.94 228.81 459.046 228.81H480.238C480.343 228.81 480.429 228.725 480.429 228.619V227.264C480.429 227.159 480.343 227.073 480.238 227.073Z" fill="#225AEA"/>
<path d="M94.5249 227.073H73.3329C73.2274 227.073 73.1418 227.159 73.1418 227.264V228.619C73.1418 228.725 73.2274 228.81 73.3329 228.81H94.5249C94.6304 228.81 94.7159 228.725 94.7159 228.619V227.264C94.7159 227.159 94.6304 227.073 94.5249 227.073Z" fill="#225AEA"/>
<path d="M461.684 263.06H440.365C440.294 263.06 440.237 263.117 440.237 263.187V264.091C440.237 264.161 440.294 264.218 440.365 264.218H461.684C461.754 264.218 461.811 264.161 461.811 264.091V263.187C461.811 263.117 461.754 263.06 461.684 263.06Z" fill="#C4CEFE"/>
<path d="M104.906 78.4997C108.953 78.4997 112.47 75.5607 113.018 71.552C113.114 70.8338 113.165 70.0978 113.165 69.3541C113.165 60.4275 105.93 53.192 97.0031 53.192C96.6364 53.192 96.2747 53.2098 95.9131 53.2328C95.1745 44.431 87.8015 37.5164 78.8087 37.5164C69.3269 37.5164 61.638 45.2026 61.638 54.687C61.638 55.1072 61.6584 55.5223 61.689 55.9375C58.997 54.4349 55.8619 53.6301 52.5255 53.7829C43.902 54.1776 36.8142 61.0769 36.2055 69.6877C36.2005 69.7565 36.1954 69.8253 36.1928 69.8915C35.9152 74.5751 39.7023 78.5023 44.3936 78.5023H104.906V78.4997Z" fill="#E5EBFA"/>
<path d="M527.364 118.136C540.144 118.136 540.852 98.902 528.087 98.2806C527.738 98.2628 527.387 98.2551 527.035 98.2551C524.756 98.2551 522.563 98.6168 520.505 99.279C518.796 88.8676 509.763 80.9241 498.868 80.9241C487.972 80.9241 478.544 89.2241 477.131 99.9717C474.49 98.7059 471.53 97.9954 468.405 97.9954C466.661 97.9954 464.964 98.2169 463.35 98.6321C452.174 101.51 454.52 118.138 466.06 118.138H527.369L527.364 118.136Z" fill="#E5EBFA"/>
<path d="M415.859 38.2012C428.637 38.2012 429.342 18.9727 416.583 18.3513C416.234 18.3335 415.882 18.3258 415.531 18.3258C413.254 18.3258 411.059 18.6875 409.001 19.3471C407.292 8.93829 398.261 0.997314 387.371 0.997314C376.48 0.997314 367.052 9.29484 365.639 20.0399C362.998 18.7741 360.038 18.0635 356.916 18.0635C355.171 18.0635 353.478 18.2851 351.86 18.7002C340.687 21.5781 343.033 38.1986 354.57 38.1986H415.859V38.2012Z" fill="#E5EBFA"/>
<path d="M410.389 73.5332C417.092 80.6108 418.926 80.6592 426.003 73.956C418.926 80.6592 418.877 82.4929 425.58 89.5705C418.877 82.4929 417.043 82.4445 409.966 89.1477C417.043 82.4445 417.092 80.6108 410.389 73.5332Z" fill="#E5EBFA"/>
<path d="M165.408 18.7131C172.111 25.7907 173.945 25.8391 181.023 19.1359C173.945 25.8391 173.897 27.6728 180.6 34.7504C173.897 27.6728 172.063 27.6244 164.985 34.3277C172.063 27.6244 172.111 25.7907 165.408 18.7131Z" fill="#E5EBFA"/>
<path d="M99.0483 119.827C105.751 126.904 107.585 126.953 114.663 120.249C107.585 126.953 107.537 128.786 114.24 135.864C107.537 128.786 105.703 128.738 98.6255 135.441C105.703 128.738 105.751 126.904 99.0483 119.827Z" fill="#E5EBFA"/>
<path d="M22.3381 101.877C29.0413 108.954 30.875 109.003 37.9526 102.299C30.875 109.003 30.8266 110.836 37.5298 117.914C30.8266 110.836 28.9929 110.788 21.9153 117.491C28.9929 110.788 29.0413 108.954 22.3381 101.877Z" fill="#E5EBFA"/>
<path d="M488.596 154.744C495.3 161.821 497.133 161.87 504.211 155.166C497.133 161.87 497.085 163.703 503.788 170.781C497.085 163.703 495.251 163.655 488.174 170.358C495.251 163.655 495.3 161.821 488.596 154.744Z" fill="#E5EBFA"/>
<path d="M247.074 132.013L308.282 114.038C309.428 113.702 310.085 112.499 309.746 111.353L284.765 26.2847C284.428 25.1386 283.226 24.4816 282.08 24.8203L240.172 37.1265C239.638 37.2844 239.182 37.641 238.904 38.1274L225.044 62.3272C224.752 62.8391 224.68 63.4453 224.846 64.0107L244.385 130.549C244.721 131.695 245.923 132.352 247.069 132.013H247.074Z" fill="white"/>
<path d="M247.074 132.013L308.282 114.038C309.428 113.702 310.085 112.499 309.746 111.353L284.765 26.2847C284.428 25.1386 283.226 24.4816 282.08 24.8203L240.172 37.1265C239.638 37.2844 239.182 37.641 238.904 38.1274L225.044 62.3272C224.752 62.8391 224.68 63.4453 224.846 64.0107L244.385 130.549C244.721 131.695 245.923 132.352 247.069 132.013H247.074Z" stroke="#225AEA" stroke-width="6.15878" stroke-linecap="round" stroke-linejoin="round"/>
<path d="M239.879 38.4458L244.988 55.8482C245.347 57.0707 244.65 58.3543 243.43 58.721L225.24 64.1483" fill="white"/>
<path d="M239.879 38.4458L244.988 55.8482C245.347 57.0707 244.65 58.3543 243.43 58.721L225.24 64.1483" stroke="#225AEA" stroke-width="6.15878" stroke-linecap="round" stroke-linejoin="round"/>
<path d="M251.834 102.545L248.366 103.563C248.096 103.643 247.942 103.926 248.021 104.196L252.303 118.771C252.382 119.041 252.665 119.196 252.935 119.117L256.402 118.098C256.672 118.019 256.827 117.736 256.747 117.466L252.466 102.89C252.387 102.62 252.103 102.465 251.834 102.545Z" fill="#A9ACEF"/>
<path d="M270.915 101.767L267.447 102.785C267.177 102.864 267.023 103.148 267.102 103.417L270.078 113.548C270.157 113.818 270.44 113.973 270.71 113.894L274.178 112.875C274.448 112.796 274.602 112.513 274.523 112.243L271.547 102.112C271.468 101.842 271.185 101.687 270.915 101.767Z" fill="#A9ACEF"/>
<path d="M278.496 94.7102L275.029 95.7288C274.759 95.808 274.604 96.0911 274.684 96.361L278.965 110.937C279.045 111.207 279.328 111.361 279.598 111.282L283.065 110.264C283.335 110.184 283.489 109.901 283.41 109.631L279.128 95.0554C279.049 94.7855 278.766 94.6309 278.496 94.7102Z" fill="#A9ACEF"/>
<path d="M259.415 95.4883L255.948 96.5068C255.678 96.5861 255.523 96.8692 255.603 97.1391L261.189 116.157C261.268 116.427 261.551 116.582 261.821 116.503L265.289 115.484C265.559 115.405 265.713 115.122 265.634 114.852L260.047 95.8334C259.968 95.5635 259.685 95.409 259.415 95.4883Z" fill="#A9ACEF"/>
<path d="M238.912 73.2022L280.017 61.1328" stroke="#8F93EA" stroke-width="4.61908" stroke-linecap="round" stroke-linejoin="round"/>
<path d="M240.87 79.8698L281.973 67.7979" stroke="#8F93EA" stroke-width="4.61908" stroke-linecap="round" stroke-linejoin="round"/>
<path d="M242.826 86.5348L283.932 74.4629" stroke="#8F93EA" stroke-width="4.61908" stroke-linecap="round" stroke-linejoin="round"/>
<path d="M330.566 109.054L332.092 105.812C332.382 105.193 332.079 104.459 331.435 104.23L310.948 96.8723L310.049 98.4946L328.931 109.563C329.52 109.907 330.276 109.673 330.564 109.056L330.566 109.054Z" fill="#225AEA"/>
<path d="M295.578 108.575C304.745 108.575 312.176 101.144 312.176 91.9775C312.176 82.8109 304.745 75.3799 295.578 75.3799C286.411 75.3799 278.98 82.8109 278.98 91.9775C278.98 101.144 286.411 108.575 295.578 108.575Z" fill="#A9ACEF"/>
<path d="M295.578 105.114C302.833 105.114 308.715 99.2324 308.715 91.9773C308.715 84.7222 302.833 78.8408 295.578 78.8408C288.323 78.8408 282.442 84.7222 282.442 91.9773C282.442 99.2324 288.323 105.114 295.578 105.114Z" fill="white"/>
<path d="M295.578 108.575C304.745 108.575 312.176 101.144 312.176 91.9775C312.176 82.8109 304.745 75.3799 295.578 75.3799C286.411 75.3799 278.98 82.8109 278.98 91.9775C278.98 101.144 286.411 108.575 295.578 108.575Z" stroke="#225AEA" stroke-width="6.15878" stroke-linecap="round" stroke-linejoin="round"/>
<path d="M295.657 85.6077L295.558 93.7116" stroke="#225AEA" stroke-width="6.15878" stroke-linecap="round" stroke-linejoin="round"/>
<path d="M295.5 98.3481C295.503 98.3481 295.506 98.3455 295.506 98.3424C295.506 98.3392 295.503 98.3367 295.5 98.3367C295.497 98.3367 295.494 98.3392 295.494 98.3424C295.494 98.3455 295.497 98.3481 295.5 98.3481Z" stroke="#225AEA" stroke-width="6.15878" stroke-linecap="round" stroke-linejoin="round"/>
<path d="M471.874 224.498L455.546 227.779L462.107 260.436L427.147 267.461L420.586 234.803L356.528 247.674L351.44 222.344L390.59 122.351L432.666 113.895L449.49 197.632L465.817 194.352L471.874 224.498ZM405.399 159.231L386.894 210.208L414.527 204.656L405.399 159.229V159.231Z" fill="#225AEA"/>
<path d="M202.441 241.404L186.014 238.666L180.539 271.523L145.365 265.66L150.84 232.804L86.3906 222.061L90.6387 196.575L162.777 117.033L205.11 124.09L191.067 208.339L207.494 211.077L202.439 241.407L202.441 241.404ZM163.513 156.768L128.095 197.838L155.896 202.471L163.513 156.768Z" fill="#225AEA"/>
<path d="M537 229H22V305H537V229Z" fill="white"/>
<path d="M101.187 264.648H79.8681C79.7977 264.648 79.7407 264.705 79.7407 264.776V265.68C79.7407 265.75 79.7977 265.807 79.8681 265.807H101.187C101.258 265.807 101.315 265.75 101.315 265.68V264.776C101.315 264.705 101.258 264.648 101.187 264.648Z" fill="#A9ACEF"/>
<path d="M159.729 264.648H138.409C138.339 264.648 138.282 264.705 138.282 264.776V265.68C138.282 265.75 138.339 265.807 138.409 265.807H159.729C159.799 265.807 159.856 265.75 159.856 265.68V264.776C159.856 264.705 159.799 264.648 159.729 264.648Z" fill="#A9ACEF"/>
<path d="M213.008 250.898H191.689C191.618 250.898 191.561 250.955 191.561 251.026V251.93C191.561 252 191.618 252.057 191.689 252.057H213.008C213.078 252.057 213.135 252 213.135 251.93V251.026C213.135 250.955 213.078 250.898 213.008 250.898Z" fill="#A9ACEF"/>
<path d="M243.31 266.103H221.991C221.92 266.103 221.863 266.16 221.863 266.23V267.134C221.863 267.205 221.92 267.262 221.991 267.262H243.31C243.38 267.262 243.437 267.205 243.437 267.134V266.23C243.437 266.16 243.38 266.103 243.31 266.103Z" fill="#A9ACEF"/>
<path d="M318.074 266.103H296.755C296.684 266.103 296.627 266.16 296.627 266.23V267.134C296.627 267.205 296.684 267.262 296.755 267.262H318.074C318.145 267.262 318.202 267.205 318.202 267.134V266.23C318.202 266.16 318.145 266.103 318.074 266.103Z" fill="#A9ACEF"/>
<path d="M401.717 265.245H380.397C380.327 265.245 380.27 265.302 380.27 265.372V266.277C380.27 266.347 380.327 266.404 380.397 266.404H401.717C401.787 266.404 401.844 266.347 401.844 266.277V265.372C401.844 265.302 401.787 265.245 401.717 265.245Z" fill="#A9ACEF"/>
<path d="M136.002 248.67H114.683C114.613 248.67 114.556 248.727 114.556 248.798V249.702C114.556 249.772 114.613 249.829 114.683 249.829H136.002C136.073 249.829 136.13 249.772 136.13 249.702V248.798C136.13 248.727 136.073 248.67 136.002 248.67Z" fill="#A9ACEF"/>
<path d="M284.861 248.107H263.542C263.472 248.107 263.415 248.164 263.415 248.235V249.139C263.415 249.209 263.472 249.266 263.542 249.266H284.861C284.932 249.266 284.989 249.209 284.989 249.139V248.235C284.989 248.164 284.932 248.107 284.861 248.107Z" fill="#A9ACEF"/>
<path d="M436.529 248.016H415.21C415.14 248.016 415.083 248.073 415.083 248.143V249.047C415.083 249.117 415.14 249.174 415.21 249.174H436.529C436.6 249.174 436.657 249.117 436.657 249.047V248.143C436.657 248.073 436.6 248.016 436.529 248.016Z" fill="#A9ACEF"/>
<path d="M361.877 242.624H340.558C340.487 242.624 340.43 242.681 340.43 242.751V243.655C340.43 243.726 340.487 243.783 340.558 243.783H361.877C361.947 243.783 362.004 243.726 362.004 243.655V242.751C362.004 242.681 361.947 242.624 361.877 242.624Z" fill="#A9ACEF"/>
</svg>
