<svg width="24" height="24" viewBox="0 0 24 24" fill="none" xmlns="http://www.w3.org/2000/svg">
<path opacity="0.2" d="M12 22C17.5228 22 22 17.5228 22 12C22 6.47715 17.5228 2 12 2C6.47715 2 2 6.47715 2 12C2 17.5228 6.47715 22 12 22Z" fill="#0B69FF"/>
<path d="M10.58 15.58C10.38 15.58 10.19 15.5 10.05 15.36L7.22 12.53C6.93 12.24 6.93 11.76 7.22 11.47C7.51 11.18 7.99 11.18 8.28 11.47L10.58 13.77L15.72 8.62998C16.01 8.33998 16.49 8.33998 16.78 8.62998C17.07 8.91998 17.07 9.39998 16.78 9.68998L11.11 15.36C10.97 15.5 10.78 15.58 10.58 15.58Z" fill="#0B69FF"/>
</svg>
