<?xml version="1.0" encoding="UTF-8"?>
<svg xmlns="http://www.w3.org/2000/svg" xmlns:xlink="http://www.w3.org/1999/xlink" width="154px" height="51px" viewBox="0 0 153 51" version="1.1">
<g id="surface1">
<path style=" stroke:none;fill-rule:nonzero;fill:rgb(10.196078%,9.803922%,9.803922%);fill-opacity:1;" d="M 15.65625 37.542969 L 21.929688 35.980469 C 21.929688 35.980469 19.230469 17.679688 19.210938 17.554688 C 19.195312 17.429688 19.085938 17.359375 18.996094 17.351562 C 18.90625 17.34375 17.136719 17.316406 17.136719 17.316406 C 17.136719 17.316406 16.0625 16.269531 15.65625 15.871094 Z M 15.65625 37.542969 "/>
<path style=" stroke:none;fill-rule:nonzero;fill:rgb(10.196078%,9.803922%,9.803922%);fill-opacity:1;" d="M 14.972656 15.660156 C 14.972656 15.660156 14.695312 15.75 14.230469 15.890625 C 14.152344 15.640625 14.039062 15.328125 13.875 15.015625 C 13.347656 14.011719 12.578125 13.480469 11.648438 13.480469 L 11.644531 13.480469 C 11.578125 13.480469 11.515625 13.484375 11.449219 13.492188 C 11.421875 13.457031 11.394531 13.425781 11.367188 13.394531 C 10.960938 12.957031 10.441406 12.746094 9.820312 12.765625 C 8.617188 12.800781 7.417969 13.667969 6.449219 15.214844 C 5.765625 16.300781 5.246094 17.667969 5.097656 18.726562 C 3.71875 19.152344 2.753906 19.453125 2.730469 19.460938 C 2.035156 19.679688 2.011719 19.699219 1.921875 20.359375 C 1.851562 20.855469 0.03125 34.980469 0.03125 34.980469 L 15.15625 37.601562 L 15.15625 15.628906 C 15.082031 15.636719 15.015625 15.648438 14.972656 15.660156 Z M 11.480469 16.746094 C 10.679688 16.992188 9.804688 17.265625 8.929688 17.535156 C 9.175781 16.589844 9.644531 15.648438 10.21875 15.03125 C 10.429688 14.800781 10.730469 14.546875 11.082031 14.398438 C 11.414062 15.09375 11.488281 16.078125 11.480469 16.746094 Z M 9.84375 13.566406 C 10.125 13.5625 10.363281 13.621094 10.566406 13.757812 C 10.238281 13.925781 9.925781 14.167969 9.632812 14.484375 C 8.867188 15.304688 8.28125 16.578125 8.050781 17.808594 C 7.320312 18.035156 6.609375 18.257812 5.953125 18.460938 C 6.367188 16.523438 7.988281 13.621094 9.84375 13.566406 Z M 7.503906 24.589844 C 7.585938 25.878906 10.96875 26.160156 11.160156 29.179688 C 11.308594 31.554688 9.902344 33.179688 7.875 33.308594 C 5.441406 33.464844 4.101562 32.023438 4.101562 32.023438 L 4.617188 29.824219 C 4.617188 29.824219 5.964844 30.84375 7.042969 30.777344 C 7.75 30.730469 8 30.15625 7.976562 29.75 C 7.871094 28.070312 5.113281 28.167969 4.9375 25.40625 C 4.792969 23.078125 6.316406 20.722656 9.679688 20.511719 C 10.976562 20.429688 11.640625 20.761719 11.640625 20.761719 L 10.871094 23.644531 C 10.871094 23.644531 10.011719 23.253906 8.996094 23.316406 C 7.503906 23.410156 7.488281 24.351562 7.503906 24.589844 Z M 12.28125 16.496094 C 12.269531 15.886719 12.199219 15.039062 11.914062 14.304688 C 12.828125 14.480469 13.277344 15.511719 13.464844 16.128906 C 13.113281 16.238281 12.714844 16.363281 12.28125 16.496094 Z M 12.28125 16.496094 "/>
<path style=" stroke:none;fill-rule:nonzero;fill:rgb(10.196078%,9.803922%,9.803922%);fill-opacity:1;" d="M 90.625 37.707031 L 92.746094 26.386719 C 93.011719 24.964844 93.210938 23.707031 93.339844 22.730469 L 94.25 22.730469 L 93.917969 24.878906 L 93.960938 24.878906 C 94.910156 23.441406 96.238281 22.511719 97.652344 22.511719 C 99.667969 22.511719 100.417969 24.238281 100.417969 25.964844 C 100.417969 29.554688 97.964844 33.582031 94.578125 33.582031 C 93.539062 33.582031 92.855469 33.339844 92.457031 33.117188 L 92.414062 33.117188 L 91.578125 37.703125 Z M 92.617188 32.144531 C 93.101562 32.523438 93.808594 32.742188 94.671875 32.742188 C 97.480469 32.742188 99.425781 28.757812 99.425781 26.03125 C 99.425781 24.765625 98.9375 23.371094 97.371094 23.371094 C 95.867188 23.371094 93.898438 25.277344 93.300781 28.488281 Z M 92.617188 32.144531 "/>
<path style=" stroke:none;fill-rule:nonzero;fill:rgb(10.196078%,9.803922%,9.803922%);fill-opacity:1;" d="M 107.734375 33.363281 C 107.714844 32.71875 107.847656 31.722656 108 30.503906 L 107.957031 30.503906 C 106.742188 32.851562 105.394531 33.585938 104 33.585938 C 102.390625 33.585938 101.414062 32.253906 101.414062 30.351562 C 101.414062 26.738281 104 22.507812 108.113281 22.507812 C 108.867188 22.507812 109.707031 22.640625 110.257812 22.816406 L 109.132812 28.554688 C 108.753906 30.527344 108.621094 32.234375 108.667969 33.363281 Z M 109.152344 23.527344 C 108.910156 23.4375 108.535156 23.371094 107.871094 23.371094 C 104.820312 23.371094 102.433594 26.785156 102.410156 30.128906 C 102.386719 31.503906 102.785156 32.742188 104.222656 32.742188 C 105.949219 32.742188 107.894531 30.152344 108.402344 27.402344 Z M 109.152344 23.527344 "/>
<path style=" stroke:none;fill-rule:nonzero;fill:rgb(10.196078%,9.803922%,9.803922%);fill-opacity:1;" d="M 111.164062 33.363281 L 112.511719 26.207031 C 112.777344 24.855469 112.933594 23.660156 113.019531 22.730469 L 113.902344 22.730469 C 113.816406 23.417969 113.726562 24.125 113.59375 25.035156 L 113.640625 25.035156 C 114.300781 23.613281 115.339844 22.507812 116.667969 22.507812 C 116.800781 22.507812 116.933594 22.523438 117.066406 22.550781 L 116.886719 23.550781 C 116.765625 23.519531 116.640625 23.503906 116.511719 23.503906 C 115.121094 23.503906 113.570312 25.609375 113.128906 27.960938 L 112.132812 33.363281 Z M 111.164062 33.363281 "/>
<path style=" stroke:none;fill-rule:nonzero;fill:rgb(10.196078%,9.803922%,9.803922%);fill-opacity:1;" d="M 121.089844 20.382812 L 120.625 22.730469 L 123.125 22.730469 L 122.949219 23.550781 L 120.449219 23.550781 L 119.277344 29.886719 C 119.144531 30.597656 119.054688 31.148438 119.054688 31.726562 C 119.054688 32.34375 119.34375 32.722656 120.003906 32.722656 C 120.359375 32.722656 120.582031 32.699219 120.78125 32.632812 L 120.84375 33.40625 C 120.507812 33.507812 120.15625 33.5625 119.804688 33.5625 C 118.542969 33.5625 118.058594 32.722656 118.058594 31.835938 C 118.058594 31.257812 118.121094 30.707031 118.300781 29.886719 L 119.496094 23.550781 L 117.96875 23.550781 L 118.125 22.730469 L 119.671875 22.730469 L 120.023438 20.824219 Z M 121.089844 20.382812 "/>
<path style=" stroke:none;fill-rule:nonzero;fill:rgb(10.196078%,9.803922%,9.803922%);fill-opacity:1;" d="M 122.882812 33.363281 L 124.296875 25.851562 C 124.511719 24.820312 124.675781 23.777344 124.785156 22.730469 L 125.667969 22.730469 L 125.378906 24.902344 L 125.425781 24.902344 C 126.351562 23.351562 127.679688 22.507812 129.117188 22.507812 C 130.15625 22.507812 131.484375 23.171875 131.484375 25.1875 C 131.484375 25.71875 131.394531 26.25 131.28125 26.828125 L 130.066406 33.363281 L 129.117188 33.363281 L 130.355469 26.828125 C 130.453125 26.316406 130.503906 25.796875 130.511719 25.277344 C 130.511719 24.171875 130.066406 23.375 128.761719 23.375 C 127.34375 23.375 125.359375 25.144531 124.898438 27.714844 L 123.859375 33.363281 Z M 122.882812 33.363281 "/>
<path style=" stroke:none;fill-rule:nonzero;fill:rgb(10.196078%,9.803922%,9.803922%);fill-opacity:1;" d="M 139.265625 32.765625 C 138.710938 33.121094 137.695312 33.5625 136.367188 33.5625 C 133.890625 33.5625 133.027344 31.613281 133.027344 29.574219 C 133.027344 26.519531 135.152344 22.507812 138.203125 22.507812 C 139.949219 22.507812 140.679688 23.660156 140.679688 24.832031 C 140.679688 27.535156 137.585938 28.289062 134.113281 28.265625 C 134.003906 28.753906 133.984375 30.148438 134.203125 30.902344 C 134.578125 32.121094 135.394531 32.695312 136.523438 32.695312 C 137.691406 32.695312 138.488281 32.277344 138.976562 31.988281 Z M 138.027344 23.371094 C 136.390625 23.371094 134.910156 25.144531 134.269531 27.425781 C 137.03125 27.449219 139.6875 26.984375 139.6875 24.878906 C 139.6875 23.882812 139.023438 23.371094 138.027344 23.371094 Z M 138.027344 23.371094 "/>
<path style=" stroke:none;fill-rule:nonzero;fill:rgb(10.196078%,9.803922%,9.803922%);fill-opacity:1;" d="M 141.210938 33.363281 L 142.558594 26.207031 C 142.824219 24.855469 142.980469 23.660156 143.066406 22.730469 L 143.953125 22.730469 C 143.863281 23.417969 143.777344 24.125 143.644531 25.035156 L 143.6875 25.035156 C 144.351562 23.613281 145.390625 22.507812 146.714844 22.507812 C 146.851562 22.507812 146.984375 22.523438 147.113281 22.550781 L 146.9375 23.550781 C 146.816406 23.519531 146.6875 23.503906 146.5625 23.503906 C 145.167969 23.503906 143.621094 25.609375 143.179688 27.960938 L 142.183594 33.363281 Z M 141.210938 33.363281 "/>
<path style=" stroke:none;fill-rule:nonzero;fill:rgb(10.196078%,9.803922%,9.803922%);fill-opacity:1;" d="M 146.671875 32.121094 C 147.230469 32.488281 147.882812 32.6875 148.550781 32.699219 C 149.945312 32.699219 150.871094 31.703125 150.871094 30.503906 C 150.871094 29.4375 150.429688 28.796875 149.433594 28.15625 C 148.394531 27.46875 147.820312 26.515625 147.820312 25.539062 C 147.820312 23.878906 149.148438 22.507812 151.003906 22.507812 C 151.734375 22.507812 152.464844 22.75 152.773438 22.992188 L 152.417969 23.8125 C 152.085938 23.613281 151.511719 23.371094 150.890625 23.371094 C 149.609375 23.371094 148.769531 24.257812 148.769531 25.363281 C 148.769531 26.363281 149.324219 26.914062 150.207031 27.496094 C 151.226562 28.183594 151.84375 29.15625 151.84375 30.21875 C 151.84375 32.367188 150.273438 33.566406 148.460938 33.566406 C 147.511719 33.566406 146.671875 33.210938 146.316406 32.921875 Z M 146.671875 32.121094 "/>
<path style=" stroke:none;fill-rule:nonzero;fill:rgb(10.196078%,9.803922%,9.803922%);fill-opacity:1;" d="M 30.902344 26.914062 C 30.136719 26.496094 29.742188 26.144531 29.742188 25.660156 C 29.742188 25.046875 30.289062 24.648438 31.148438 24.648438 C 32.144531 24.648438 33.03125 25.066406 33.03125 25.066406 L 33.730469 22.914062 C 33.730469 22.914062 33.085938 22.410156 31.183594 22.410156 C 28.542969 22.410156 26.710938 23.925781 26.710938 26.054688 C 26.710938 27.265625 27.566406 28.1875 28.707031 28.847656 C 29.628906 29.375 29.957031 29.75 29.957031 30.296875 C 29.957031 30.867188 29.496094 31.328125 28.644531 31.328125 C 27.367188 31.328125 26.164062 30.671875 26.164062 30.671875 L 25.417969 32.824219 C 25.417969 32.824219 26.527344 33.570312 28.398438 33.570312 C 31.121094 33.570312 33.070312 32.230469 33.070312 29.8125 C 33.074219 28.515625 32.085938 27.59375 30.902344 26.914062 Z M 30.902344 26.914062 "/>
<path style=" stroke:none;fill-rule:nonzero;fill:rgb(10.196078%,9.803922%,9.803922%);fill-opacity:1;" d="M 41.734375 22.382812 C 40.398438 22.382812 39.34375 23.019531 38.535156 23.988281 L 38.488281 23.964844 L 39.648438 17.878906 L 36.628906 17.878906 L 33.691406 33.375 L 36.71875 33.375 L 37.726562 28.078125 C 38.121094 26.078125 39.152344 24.851562 40.117188 24.851562 C 40.796875 24.851562 41.058594 25.3125 41.058594 25.972656 C 41.058594 26.421875 41.015625 26.871094 40.929688 27.3125 L 39.785156 33.371094 L 42.8125 33.371094 L 43.996094 27.109375 C 44.128906 26.460938 44.203125 25.796875 44.21875 25.132812 C 44.214844 23.417969 43.316406 22.382812 41.734375 22.382812 Z M 41.734375 22.382812 "/>
<path style=" stroke:none;fill-rule:nonzero;fill:rgb(10.196078%,9.803922%,9.803922%);fill-opacity:1;" d="M 51.058594 22.382812 C 47.417969 22.382812 45.007812 25.683594 45.007812 29.351562 C 45.007812 31.703125 46.453125 33.59375 49.171875 33.59375 C 52.75 33.59375 55.160156 30.382812 55.160156 26.628906 C 55.160156 24.449219 53.886719 22.382812 51.058594 22.382812 Z M 49.566406 31.261719 C 48.535156 31.261719 48.097656 30.382812 48.097656 29.28125 C 48.097656 27.546875 49 24.710938 50.640625 24.710938 C 51.714844 24.710938 52.066406 25.636719 52.066406 26.535156 C 52.066406 28.40625 51.167969 31.261719 49.566406 31.261719 Z M 49.566406 31.261719 "/>
<path style=" stroke:none;fill-rule:nonzero;fill:rgb(10.196078%,9.803922%,9.803922%);fill-opacity:1;" d="M 62.898438 22.382812 C 60.855469 22.382812 59.695312 24.191406 59.695312 24.191406 L 59.652344 24.191406 L 59.828125 22.566406 L 57.152344 22.566406 C 57.023438 23.664062 56.78125 25.332031 56.539062 26.585938 L 54.433594 37.679688 L 57.464844 37.679688 L 58.296875 33.195312 L 58.359375 33.195312 C 58.359375 33.195312 58.980469 33.59375 60.136719 33.59375 C 63.691406 33.59375 66.015625 29.945312 66.015625 26.253906 C 66.011719 24.210938 65.113281 22.382812 62.898438 22.382812 Z M 60.003906 31.308594 C 59.550781 31.3125 59.105469 31.15625 58.753906 30.867188 L 59.257812 28.03125 C 59.609375 26.144531 60.597656 24.890625 61.648438 24.890625 C 62.570312 24.890625 62.855469 25.746094 62.855469 26.5625 C 62.855469 28.515625 61.695312 31.308594 60.003906 31.308594 Z M 60.003906 31.308594 "/>
<path style=" stroke:none;fill-rule:nonzero;fill:rgb(10.196078%,9.803922%,9.803922%);fill-opacity:1;" d="M 70.335938 18.035156 C 70.105469 18.035156 69.878906 18.078125 69.664062 18.167969 C 69.453125 18.253906 69.261719 18.386719 69.101562 18.550781 C 68.9375 18.714844 68.8125 18.90625 68.726562 19.121094 C 68.640625 19.335938 68.597656 19.5625 68.601562 19.792969 C 68.601562 20.695312 69.171875 21.308594 70.027344 21.308594 L 70.070312 21.308594 C 71.015625 21.308594 71.828125 20.671875 71.847656 19.550781 C 71.847656 18.671875 71.257812 18.035156 70.335938 18.035156 Z M 70.335938 18.035156 "/>
<path style=" stroke:none;fill-rule:nonzero;fill:rgb(10.196078%,9.803922%,9.803922%);fill-opacity:1;" d="M 66.101562 33.371094 L 69.128906 33.371094 L 71.191406 22.628906 L 68.140625 22.628906 Z M 66.101562 33.371094 "/>
<path style=" stroke:none;fill-rule:nonzero;fill:rgb(10.196078%,9.803922%,9.803922%);fill-opacity:1;" d="M 78.886719 22.605469 L 76.78125 22.605469 L 76.890625 22.101562 C 77.066406 21.066406 77.679688 20.144531 78.691406 20.144531 C 79.019531 20.144531 79.34375 20.195312 79.65625 20.296875 L 80.246094 17.929688 C 80.246094 17.929688 79.71875 17.664062 78.601562 17.664062 C 77.527344 17.664062 76.453125 17.972656 75.640625 18.675781 C 74.609375 19.554688 74.128906 20.828125 73.886719 22.105469 L 73.800781 22.609375 L 72.394531 22.609375 L 71.957031 24.894531 L 73.359375 24.894531 L 71.757812 33.375 L 74.789062 33.375 L 76.386719 24.890625 L 78.46875 24.890625 Z M 78.886719 22.605469 "/>
<path style=" stroke:none;fill-rule:nonzero;fill:rgb(10.196078%,9.803922%,9.803922%);fill-opacity:1;" d="M 86.167969 22.628906 C 86.167969 22.628906 84.277344 27.40625 83.425781 30.011719 L 83.382812 30.011719 C 83.324219 29.171875 82.636719 22.628906 82.636719 22.628906 L 79.457031 22.628906 L 81.277344 32.492188 C 81.320312 32.710938 81.300781 32.84375 81.214844 33 C 80.863281 33.679688 80.269531 34.339844 79.570312 34.820312 C 79 35.238281 78.363281 35.503906 77.859375 35.679688 L 78.691406 38.25 C 79.304688 38.121094 80.578125 37.613281 81.65625 36.601562 C 83.039062 35.304688 84.308594 33.304688 85.625 30.582031 L 89.332031 22.628906 Z M 86.167969 22.628906 "/>
</g>
</svg>
