<?xml version="1.0" encoding="UTF-8"?>
<svg xmlns="http://www.w3.org/2000/svg" xmlns:xlink="http://www.w3.org/1999/xlink" width="106px" height="70px" viewBox="0 0 105 70" version="1.1">
<g id="surface1">
<path style=" stroke:none;fill-rule:nonzero;fill:rgb(10.196078%,9.803922%,9.803922%);fill-opacity:1;" d="M 24.605469 44.503906 L 24.605469 52.191406 L 22.207031 52.191406 L 22.207031 33.226562 L 28.574219 33.226562 C 30.199219 33.226562 31.5625 33.777344 32.691406 34.875 C 33.835938 35.972656 34.414062 37.304688 34.414062 38.878906 C 34.414062 40.453125 33.835938 41.824219 32.691406 42.90625 C 31.574219 43.984375 30.210938 44.53125 28.574219 44.53125 L 24.605469 44.53125 Z M 24.605469 35.546875 L 24.605469 42.171875 L 28.625 42.171875 C 29.582031 42.171875 30.367188 41.847656 30.996094 41.1875 C 31.636719 40.539062 31.96875 39.753906 31.96875 38.855469 C 31.96875 37.953125 31.648438 37.210938 30.996094 36.546875 C 30.367188 35.875 29.582031 35.535156 28.625 35.535156 L 24.605469 35.535156 Z M 24.605469 35.546875 "/>
<path style=" stroke:none;fill-rule:nonzero;fill:rgb(10.196078%,9.803922%,9.803922%);fill-opacity:1;" d="M 40.832031 38.792969 C 42.601562 38.792969 44 39.28125 45.03125 40.238281 C 46.054688 41.199219 46.570312 42.523438 46.570312 44.191406 L 46.570312 52.191406 L 44.269531 52.191406 L 44.269531 50.394531 L 44.171875 50.394531 C 43.179688 51.878906 41.859375 52.613281 40.203125 52.613281 C 38.789062 52.613281 37.609375 52.191406 36.664062 51.34375 C 35.714844 50.492188 35.238281 49.433594 35.238281 48.164062 C 35.238281 46.816406 35.742188 45.753906 36.738281 44.953125 C 37.730469 44.15625 39.074219 43.757812 40.742188 43.757812 C 42.167969 43.757812 43.347656 44.019531 44.269531 44.554688 L 44.269531 43.996094 C 44.269531 43.148438 43.9375 42.421875 43.273438 41.835938 C 42.613281 41.25 41.835938 40.949219 40.949219 40.949219 C 39.613281 40.949219 38.554688 41.523438 37.769531 42.671875 L 35.652344 41.328125 C 36.820312 39.628906 38.542969 38.777344 40.816406 38.777344 Z M 37.71875 48.222656 C 37.71875 48.863281 37.988281 49.382812 38.519531 49.808594 C 39.046875 50.234375 39.675781 50.441406 40.386719 50.441406 C 41.394531 50.441406 42.292969 50.070312 43.089844 49.308594 C 43.875 48.546875 44.285156 47.660156 44.285156 46.640625 C 43.53125 46.042969 42.488281 45.742188 41.148438 45.742188 C 40.179688 45.742188 39.367188 45.980469 38.703125 46.453125 C 38.050781 46.925781 37.71875 47.523438 37.71875 48.222656 Z M 37.71875 48.222656 "/>
<path style=" stroke:none;fill-rule:nonzero;fill:rgb(10.196078%,9.803922%,9.803922%);fill-opacity:1;" d="M 49.289062 39.214844 L 51.585938 39.214844 L 51.585938 41.335938 L 51.683594 41.335938 C 52.394531 39.675781 53.871094 38.839844 56.097656 38.839844 L 56.585938 38.890625 L 56.585938 41.433594 L 55.515625 41.335938 C 54.398438 41.335938 53.488281 41.683594 52.765625 42.382812 C 52.039062 43.082031 51.683594 43.96875 51.683594 45.039062 L 51.683594 52.191406 L 49.289062 52.191406 Z M 64.269531 52.398438 C 63.222656 52.398438 62.363281 52.078125 61.671875 51.417969 C 60.988281 50.769531 60.628906 49.855469 60.617188 48.683594 L 60.617188 41.421875 L 58.371094 41.421875 L 58.371094 39.203125 L 60.617188 39.203125 L 60.617188 35.234375 L 63.015625 35.234375 L 63.015625 39.203125 L 66.148438 39.203125 L 66.148438 41.421875 L 63.015625 41.421875 L 63.015625 47.886719 C 63.015625 48.746094 63.171875 49.332031 63.503906 49.644531 C 63.839844 49.957031 64.207031 50.105469 64.625 50.105469 C 64.824219 50.105469 65.003906 50.082031 65.1875 50.042969 C 65.375 49.992188 65.546875 49.945312 65.695312 49.867188 L 66.457031 52.039062 C 65.828125 52.265625 65.105469 52.386719 64.269531 52.386719 Z M 64.269531 52.398438 "/>
<path style=" stroke:none;fill-rule:nonzero;fill:rgb(10.196078%,9.803922%,9.803922%);fill-opacity:1;" d="M 68.570312 39.21875 L 70.867188 39.21875 L 70.867188 41.011719 L 70.96875 41.011719 C 71.335938 40.375 71.890625 39.855469 72.648438 39.425781 C 73.410156 39.003906 74.199219 38.789062 75.007812 38.789062 C 76.570312 38.789062 77.777344 39.242188 78.625 40.152344 C 79.472656 41.0625 79.886719 42.359375 79.886719 44.03125 L 79.886719 52.191406 L 77.492188 52.191406 L 77.492188 44.191406 C 77.445312 42.070312 76.386719 41.011719 74.332031 41.011719 C 73.375 41.011719 72.574219 41.410156 71.933594 42.183594 C 71.300781 42.96875 70.96875 43.90625 70.96875 45.003906 L 70.96875 52.179688 L 68.570312 52.179688 L 68.570312 39.207031 Z M 68.570312 39.21875 "/>
<path style=" stroke:none;fill-rule:nonzero;fill:rgb(10.196078%,9.803922%,9.803922%);fill-opacity:1;" d="M 88.457031 52.613281 C 86.574219 52.613281 85.027344 51.964844 83.808594 50.65625 C 82.59375 49.347656 81.976562 47.699219 81.976562 45.703125 C 81.976562 43.707031 82.566406 42.082031 83.75 40.761719 C 84.929688 39.453125 86.441406 38.789062 88.285156 38.789062 C 90.125 38.789062 91.6875 39.414062 92.804688 40.664062 C 93.925781 41.910156 94.488281 43.65625 94.488281 45.890625 L 94.46875 46.148438 L 84.425781 46.148438 C 84.460938 47.425781 84.878906 48.445312 85.679688 49.222656 C 86.476562 49.996094 87.4375 50.378906 88.554688 50.378906 C 90.089844 50.378906 91.28125 49.605469 92.152344 48.050781 L 94.292969 49.109375 C 93.714844 50.207031 92.929688 51.054688 91.910156 51.675781 C 90.890625 52.300781 89.734375 52.601562 88.457031 52.601562 Z M 84.621094 44.140625 L 91.957031 44.140625 C 91.882812 43.246094 91.53125 42.496094 90.878906 41.910156 C 90.226562 41.324219 89.351562 41.023438 88.261719 41.023438 C 87.351562 41.023438 86.574219 41.3125 85.925781 41.875 C 85.273438 42.433594 84.839844 43.195312 84.632812 44.15625 Z M 84.621094 44.140625 "/>
<path style=" stroke:none;fill-rule:nonzero;fill:rgb(10.196078%,9.803922%,9.803922%);fill-opacity:1;" d="M 99.101562 52.191406 L 96.703125 52.191406 L 96.703125 39.21875 L 99 39.21875 L 99 41.339844 L 99.101562 41.339844 C 99.34375 40.652344 99.847656 40.0625 100.597656 39.578125 C 101.359375 39.09375 102.097656 38.855469 102.835938 38.855469 C 103.570312 38.855469 104.128906 38.953125 104.605469 39.167969 L 103.878906 41.523438 C 103.582031 41.398438 103.117188 41.339844 102.464844 41.339844 C 101.554688 41.339844 100.769531 41.710938 100.105469 42.449219 C 99.433594 43.183594 99.101562 44.058594 99.101562 45.042969 Z M 99.101562 52.191406 "/>
<path style=" stroke:none;fill-rule:nonzero;fill:rgb(10.196078%,9.803922%,9.803922%);fill-opacity:1;" d="M 27.640625 22.140625 L 27.640625 23.796875 L 31.535156 23.796875 C 31.414062 24.847656 30.984375 25.65625 30.261719 26.234375 C 29.546875 26.804688 28.671875 27.089844 27.640625 27.089844 C 26.4375 27.089844 25.429688 26.667969 24.605469 25.808594 C 23.78125 24.957031 23.363281 23.925781 23.363281 22.691406 C 23.363281 21.457031 23.78125 20.417969 24.605469 19.570312 C 25.429688 18.710938 26.449219 18.285156 27.640625 18.285156 C 28.773438 18.285156 29.742188 18.6875 30.578125 19.472656 L 31.734375 18.296875 C 30.578125 17.1875 29.214844 16.628906 27.640625 16.628906 C 26.570312 16.628906 25.566406 16.898438 24.617188 17.449219 C 23.671875 17.988281 22.933594 18.734375 22.394531 19.683594 C 21.863281 20.605469 21.59375 21.601562 21.59375 22.675781 C 21.59375 23.75 21.863281 24.761719 22.394531 25.695312 C 22.921875 26.632812 23.671875 27.367188 24.617188 27.914062 C 25.566406 28.464844 26.570312 28.738281 27.640625 28.738281 C 29.25 28.738281 30.59375 28.230469 31.648438 27.203125 C 32.691406 26.195312 33.222656 24.847656 33.222656 23.175781 C 33.222656 22.777344 33.199219 22.4375 33.136719 22.140625 Z M 27.640625 22.140625 "/>
<path style=" stroke:none;fill-rule:nonzero;fill:rgb(10.196078%,9.803922%,9.803922%);fill-opacity:1;" d="M 37.648438 20.941406 C 36.550781 20.941406 35.628906 21.316406 34.894531 22.066406 C 34.15625 22.800781 33.789062 23.722656 33.789062 24.847656 C 33.789062 25.96875 34.15625 26.871094 34.90625 27.628906 C 35.640625 28.375 36.550781 28.75 37.648438 28.75 C 38.742188 28.75 39.652344 28.375 40.386719 27.628906 C 41.140625 26.871094 41.503906 25.945312 41.503906 24.847656 C 41.503906 23.75 41.140625 22.816406 40.386719 22.066406 C 39.652344 21.316406 38.742188 20.941406 37.648438 20.941406 Z M 39.167969 26.53125 C 38.753906 26.980469 38.246094 27.203125 37.648438 27.203125 C 37.046875 27.203125 36.515625 26.980469 36.097656 26.53125 C 35.679688 26.082031 35.472656 25.523438 35.472656 24.847656 C 35.472656 24.175781 35.679688 23.597656 36.097656 23.164062 C 36.515625 22.714844 37.035156 22.488281 37.648438 22.488281 C 38.257812 22.488281 38.777344 22.714844 39.195312 23.164062 C 39.613281 23.597656 39.820312 24.164062 39.820312 24.847656 C 39.820312 25.535156 39.613281 26.070312 39.183594 26.53125 Z M 39.167969 26.53125 "/>
<path style=" stroke:none;fill-rule:nonzero;fill:rgb(10.196078%,9.803922%,9.803922%);fill-opacity:1;" d="M 60.824219 17.046875 L 59.140625 17.046875 L 59.140625 28.511719 L 60.824219 28.511719 Z M 60.824219 17.046875 "/>
<path style=" stroke:none;fill-rule:nonzero;fill:rgb(10.196078%,9.803922%,9.803922%);fill-opacity:1;" d="M 46.066406 20.941406 C 44.96875 20.941406 44.050781 21.316406 43.308594 22.066406 C 42.574219 22.800781 42.203125 23.722656 42.203125 24.847656 C 42.203125 25.96875 42.574219 26.871094 43.324219 27.628906 C 44.0625 28.375 44.96875 28.75 46.066406 28.75 C 47.15625 28.75 48.066406 28.375 48.804688 27.628906 C 49.554688 26.871094 49.925781 25.945312 49.925781 24.847656 C 49.925781 23.75 49.554688 22.816406 48.804688 22.066406 C 48.066406 21.316406 47.15625 20.941406 46.066406 20.941406 Z M 47.589844 26.53125 C 47.171875 26.980469 46.667969 27.203125 46.066406 27.203125 C 45.460938 27.203125 44.933594 26.980469 44.515625 26.53125 C 44.09375 26.082031 43.886719 25.523438 43.886719 24.847656 C 43.886719 24.175781 44.09375 23.597656 44.515625 23.164062 C 44.933594 22.714844 45.449219 22.488281 46.066406 22.488281 C 46.679688 22.488281 47.195312 22.714844 47.609375 23.164062 C 48.03125 23.597656 48.238281 24.164062 48.238281 24.847656 C 48.238281 25.535156 48.03125 26.070312 47.601562 26.53125 Z M 47.589844 26.53125 "/>
<path style=" stroke:none;fill-rule:nonzero;fill:rgb(10.196078%,9.803922%,9.803922%);fill-opacity:1;" d="M 65.460938 27.203125 C 64.609375 27.203125 64 26.808594 63.589844 26.019531 L 68.726562 23.863281 L 68.558594 23.414062 C 68.421875 23.050781 68.25 22.714844 68.027344 22.402344 C 67.808594 22.105469 67.558594 21.828125 67.277344 21.613281 C 66.996094 21.394531 66.6875 21.230469 66.347656 21.105469 C 66 20.992188 65.644531 20.929688 65.261719 20.929688 C 64.230469 20.929688 63.371094 21.304688 62.667969 22.042969 C 61.980469 22.789062 61.640625 23.722656 61.640625 24.835938 C 61.640625 25.945312 62.003906 26.871094 62.730469 27.617188 C 63.453125 28.367188 64.363281 28.738281 65.449219 28.738281 C 66.8125 28.738281 67.867188 28.167969 68.644531 27.003906 L 67.328125 26.121094 C 66.847656 26.84375 66.222656 27.191406 65.4375 27.191406 Z M 63.898438 23.101562 C 64.328125 22.664062 64.796875 22.453125 65.324219 22.453125 C 65.65625 22.453125 65.953125 22.527344 66.210938 22.675781 C 66.46875 22.828125 66.648438 23.023438 66.75 23.277344 L 63.320312 24.722656 C 63.296875 24.0625 63.492188 23.527344 63.898438 23.101562 Z M 63.898438 23.101562 "/>
<path style=" stroke:none;fill-rule:nonzero;fill:rgb(10.196078%,9.803922%,9.803922%);fill-opacity:1;" d="M 56.378906 21.816406 L 56.316406 21.816406 C 55.835938 21.230469 55.160156 20.941406 54.289062 20.941406 C 53.292969 20.941406 52.433594 21.328125 51.695312 22.089844 C 50.96875 22.867188 50.597656 23.773438 50.597656 24.847656 C 50.597656 25.917969 50.96875 26.832031 51.695312 27.59375 C 52.445312 28.355469 53.304688 28.726562 54.289062 28.726562 C 55.148438 28.726562 55.820312 28.425781 56.316406 27.839844 L 56.378906 27.839844 L 56.378906 28.242188 C 56.378906 29.875 55.6875 30.699219 54.328125 30.699219 C 53.882812 30.699219 53.5 30.570312 53.160156 30.3125 C 52.8125 30.050781 52.554688 29.726562 52.382812 29.300781 L 50.90625 29.921875 C 51.054688 30.273438 51.238281 30.585938 51.460938 30.859375 C 51.683594 31.144531 51.941406 31.382812 52.238281 31.585938 C 52.53125 31.785156 52.851562 31.945312 53.203125 32.058594 C 53.550781 32.171875 53.917969 32.234375 54.3125 32.234375 C 55.457031 32.234375 56.355469 31.882812 56.988281 31.171875 C 57.628906 30.472656 57.960938 29.464844 57.960938 28.167969 L 57.960938 21.167969 L 56.367188 21.167969 L 56.367188 21.804688 Z M 55.898438 26.542969 C 55.507812 26.996094 55.011719 27.203125 54.445312 27.203125 C 53.84375 27.203125 53.339844 26.980469 52.921875 26.53125 C 52.519531 26.082031 52.308594 25.523438 52.308594 24.859375 C 52.308594 24.199219 52.519531 23.621094 52.933594 23.175781 C 53.367188 22.714844 53.871094 22.476562 54.445312 22.476562 C 55.023438 22.476562 55.515625 22.703125 55.898438 23.148438 C 56.292969 23.609375 56.5 24.1875 56.5 24.847656 C 56.5 25.507812 56.304688 26.070312 55.898438 26.53125 Z M 55.898438 26.542969 "/>
<path style=" stroke:none;fill-rule:nonzero;fill:rgb(10.196078%,9.803922%,9.803922%);fill-opacity:1;" d="M 12.242188 11.1875 L 0 11.1875 L 0 58.417969 L 12.242188 58.417969 Z M 12.242188 11.1875 "/>
</g>
</svg>
