<?xml version="1.0" encoding="UTF-8"?>
<svg xmlns="http://www.w3.org/2000/svg" xmlns:xlink="http://www.w3.org/1999/xlink" width="94px" height="37px" viewBox="0 0 93 37" version="1.1">
<g id="surface1">
<path style=" stroke:none;fill-rule:nonzero;fill:rgb(0%,0%,0%);fill-opacity:1;" d="M 31.828125 8.425781 L 29.03125 8.425781 L 29.03125 19.929688 L 25.53125 19.929688 L 25.53125 8.425781 L 22.042969 8.425781 L 22.035156 5.269531 L 32.820312 5.269531 Z M 31.828125 8.425781 "/>
<path style=" stroke:none;fill-rule:nonzero;fill:rgb(0%,0%,0%);fill-opacity:1;" d="M 60.519531 8.425781 L 57.480469 8.425781 L 57.480469 19.929688 L 53.988281 19.929688 L 53.988281 8.425781 L 50.484375 8.425781 L 50.476562 5.269531 L 61.507812 5.269531 Z M 60.519531 8.425781 "/>
<path style=" stroke:none;fill-rule:nonzero;fill:rgb(0%,0%,0%);fill-opacity:1;" d="M 36.929688 19.929688 L 33.5 19.929688 L 33.472656 9.933594 L 36.929688 9.933594 Z M 36.929688 19.929688 "/>
<path style=" stroke:none;fill-rule:nonzero;fill:rgb(0%,0%,0%);fill-opacity:1;" d="M 41.753906 12.058594 L 45.179688 8.675781 L 49.300781 8.675781 L 44.972656 12.925781 L 49.824219 19.929688 L 46.015625 19.929688 L 42.777344 15.0625 L 41.753906 16.066406 L 41.753906 19.929688 L 38.300781 19.929688 L 38.300781 5.230469 L 41.753906 5.230469 Z M 41.753906 12.058594 "/>
<path style=" stroke:none;fill-rule:nonzero;fill:rgb(0%,0%,0%);fill-opacity:1;" d="M 78.378906 12.058594 L 81.796875 8.675781 L 85.917969 8.675781 L 81.589844 12.925781 L 86.40625 19.929688 L 82.601562 19.929688 L 79.367188 15.0625 L 78.378906 16.066406 L 78.378906 19.929688 L 74.921875 19.929688 L 74.886719 5.230469 L 78.378906 5.230469 Z M 78.378906 12.058594 "/>
<path style=" stroke:none;fill-rule:nonzero;fill:rgb(0%,0%,0%);fill-opacity:1;" d="M 35.207031 8.789062 C 36.164062 8.789062 36.945312 8 36.945312 7.03125 C 36.945312 6.058594 36.164062 5.269531 35.207031 5.269531 C 34.246094 5.269531 33.46875 6.058594 33.46875 7.03125 C 33.46875 8 34.246094 8.789062 35.207031 8.789062 Z M 35.207031 8.789062 "/>
<path style=" stroke:none;fill-rule:nonzero;fill:rgb(14.509804%,95.686275%,93.333333%);fill-opacity:1;" d="M 61.066406 13.949219 C 61.066406 10.824219 63.441406 8.226562 66.515625 7.984375 C 66.367188 7.984375 66.15625 7.984375 66.003906 7.984375 C 62.875 8.167969 60.433594 10.789062 60.433594 13.957031 C 60.433594 17.128906 62.875 19.746094 66.003906 19.929688 C 66.15625 19.929688 66.367188 19.929688 66.515625 19.929688 C 63.433594 19.6875 61.058594 17.078125 61.066406 13.949219 Z M 61.066406 13.949219 "/>
<path style=" stroke:none;fill-rule:nonzero;fill:rgb(99.607843%,17.254902%,33.333333%);fill-opacity:1;" d="M 67.863281 7.964844 C 67.703125 7.964844 67.496094 7.964844 67.339844 7.964844 C 70.410156 8.21875 72.765625 10.8125 72.765625 13.925781 C 72.765625 17.039062 70.410156 19.632812 67.339844 19.890625 C 67.496094 19.890625 67.703125 19.890625 67.863281 19.890625 C 71.128906 19.890625 73.777344 17.210938 73.777344 13.90625 C 73.777344 10.601562 71.128906 7.921875 67.863281 7.921875 Z M 67.863281 7.964844 "/>
<path style=" stroke:none;fill-rule:nonzero;fill:rgb(0%,0%,0%);fill-opacity:1;" d="M 66.925781 16.859375 C 65.335938 16.859375 64.050781 15.554688 64.050781 13.949219 C 64.050781 12.339844 65.335938 11.035156 66.925781 11.035156 C 68.515625 11.035156 69.804688 12.339844 69.804688 13.949219 C 69.800781 15.554688 68.511719 16.855469 66.925781 16.859375 Z M 66.925781 7.964844 C 63.660156 7.964844 61.011719 10.644531 61.011719 13.949219 C 61.011719 17.25 63.660156 19.929688 66.925781 19.929688 C 70.191406 19.929688 72.839844 17.25 72.839844 13.949219 C 72.839844 12.359375 72.21875 10.835938 71.105469 9.714844 C 70 8.59375 68.492188 7.964844 66.925781 7.964844 Z M 66.925781 7.964844 "/>
<path style=" stroke:none;fill-rule:nonzero;fill:rgb(14.509804%,95.686275%,93.333333%);fill-opacity:1;" d="M 7.480469 8.34375 L 7.480469 7.519531 C 7.199219 7.472656 6.910156 7.449219 6.625 7.445312 C 3.847656 7.4375 1.390625 9.261719 0.554688 11.941406 C -0.277344 14.621094 0.707031 17.535156 2.984375 19.140625 C 1.277344 17.292969 0.804688 14.601562 1.773438 12.269531 C 2.746094 9.9375 4.980469 8.402344 7.480469 8.34375 Z M 7.480469 8.34375 "/>
<path style=" stroke:none;fill-rule:nonzero;fill:rgb(14.509804%,95.686275%,93.333333%);fill-opacity:1;" d="M 7.636719 17.699219 C 9.1875 17.695312 10.464844 16.460938 10.53125 14.890625 L 10.53125 0.886719 L 13.058594 0.886719 C 13.007812 0.59375 12.984375 0.296875 12.984375 0 L 9.527344 0 L 9.527344 13.992188 C 9.46875 15.566406 8.191406 16.816406 6.632812 16.820312 C 6.164062 16.816406 5.707031 16.699219 5.292969 16.480469 C 5.835938 17.242188 6.707031 17.695312 7.636719 17.699219 Z M 7.636719 17.699219 "/>
<path style=" stroke:none;fill-rule:nonzero;fill:rgb(14.509804%,95.686275%,93.333333%);fill-opacity:1;" d="M 17.78125 5.640625 L 17.78125 4.859375 C 16.851562 4.859375 15.941406 4.582031 15.167969 4.0625 C 15.847656 4.859375 16.765625 5.414062 17.78125 5.640625 Z M 17.78125 5.640625 "/>
<path style=" stroke:none;fill-rule:nonzero;fill:rgb(99.607843%,17.254902%,33.333333%);fill-opacity:1;" d="M 15.167969 4.0625 C 14.402344 3.183594 13.984375 2.050781 13.984375 0.878906 L 13.058594 0.878906 C 13.300781 2.1875 14.0625 3.339844 15.167969 4.0625 Z M 15.167969 4.0625 "/>
<path style=" stroke:none;fill-rule:nonzero;fill:rgb(99.607843%,17.254902%,33.333333%);fill-opacity:1;" d="M 6.625 10.945312 C 5.292969 10.953125 4.136719 11.875 3.820312 13.183594 C 3.503906 14.496094 4.109375 15.851562 5.285156 16.480469 C 4.648438 15.589844 4.558594 14.410156 5.054688 13.429688 C 5.550781 12.449219 6.546875 11.832031 7.636719 11.832031 C 7.925781 11.835938 8.214844 11.878906 8.492188 11.96875 L 8.492188 8.40625 C 8.207031 8.363281 7.921875 8.339844 7.636719 8.339844 L 7.480469 8.339844 L 7.480469 11.046875 C 7.203125 10.96875 6.914062 10.9375 6.625 10.945312 Z M 6.625 10.945312 "/>
<path style=" stroke:none;fill-rule:nonzero;fill:rgb(99.607843%,17.254902%,33.333333%);fill-opacity:1;" d="M 17.78125 5.640625 L 17.78125 8.34375 C 16.058594 8.339844 14.382812 7.789062 12.984375 6.769531 L 12.984375 13.882812 C 12.980469 17.433594 10.132812 20.304688 6.625 20.304688 C 5.320312 20.308594 4.050781 19.902344 2.984375 19.140625 C 4.765625 21.074219 7.527344 21.710938 9.957031 20.746094 C 12.382812 19.78125 13.984375 17.410156 13.984375 14.769531 L 13.984375 7.675781 C 15.382812 8.691406 17.0625 9.234375 18.785156 9.230469 L 18.785156 5.746094 C 18.449219 5.746094 18.113281 5.707031 17.78125 5.640625 Z M 17.78125 5.640625 "/>
<path style=" stroke:none;fill-rule:nonzero;fill:rgb(0%,0%,0%);fill-opacity:1;" d="M 12.984375 13.882812 L 12.984375 6.769531 C 14.386719 7.785156 16.066406 8.328125 17.789062 8.324219 L 17.789062 5.617188 C 16.773438 5.402344 15.851562 4.855469 15.167969 4.0625 C 14.0625 3.339844 13.300781 2.1875 13.058594 0.878906 L 10.53125 0.878906 L 10.53125 14.890625 C 10.480469 16.140625 9.652344 17.222656 8.46875 17.582031 C 7.285156 17.945312 6.003906 17.507812 5.28125 16.496094 C 4.101562 15.867188 3.496094 14.507812 3.8125 13.199219 C 4.128906 11.890625 5.285156 10.964844 6.617188 10.957031 C 6.910156 10.960938 7.199219 11.007812 7.476562 11.09375 L 7.476562 8.386719 C 4.960938 8.429688 2.710938 9.96875 1.734375 12.316406 C 0.761719 14.664062 1.25 17.367188 2.980469 19.214844 C 4.054688 19.949219 5.328125 20.332031 6.625 20.304688 C 10.132812 20.304688 12.980469 17.433594 12.984375 13.882812 Z M 12.984375 13.882812 "/>
<path style=" stroke:none;fill-rule:nonzero;fill:rgb(14.509804%,95.686275%,93.333333%);fill-opacity:1;" d="M 1.121094 26.757812 L 2.554688 26.757812 L 5.039062 32.890625 L 5.132812 32.890625 L 7.621094 26.757812 L 9.050781 26.757812 L 9.050781 34.644531 L 7.929688 34.644531 L 7.929688 28.9375 L 7.855469 28.9375 L 5.550781 34.632812 L 4.621094 34.632812 L 2.316406 28.933594 L 2.242188 28.933594 L 2.242188 34.644531 L 1.121094 34.644531 Z M 12.21875 34.777344 C 11.847656 34.777344 11.511719 34.707031 11.210938 34.566406 C 10.914062 34.425781 10.675781 34.222656 10.5 33.957031 C 10.324219 33.6875 10.238281 33.363281 10.238281 32.972656 C 10.238281 32.640625 10.304688 32.363281 10.429688 32.148438 C 10.558594 31.933594 10.726562 31.761719 10.945312 31.636719 C 11.160156 31.511719 11.402344 31.417969 11.671875 31.351562 C 11.9375 31.285156 12.210938 31.238281 12.488281 31.207031 C 12.839844 31.164062 13.125 31.128906 13.339844 31.105469 C 13.558594 31.078125 13.71875 31.03125 13.820312 30.972656 C 13.917969 30.910156 13.96875 30.808594 13.96875 30.667969 L 13.96875 30.644531 C 13.96875 30.304688 13.871094 30.046875 13.6875 29.859375 C 13.5 29.675781 13.222656 29.582031 12.851562 29.582031 C 12.46875 29.582031 12.167969 29.671875 11.945312 29.839844 C 11.726562 30.011719 11.574219 30.199219 11.492188 30.40625 L 10.417969 30.160156 C 10.546875 29.800781 10.730469 29.511719 10.976562 29.289062 C 11.222656 29.066406 11.507812 28.90625 11.824219 28.804688 C 12.144531 28.703125 12.484375 28.652344 12.839844 28.652344 C 13.070312 28.652344 13.320312 28.679688 13.582031 28.738281 C 13.847656 28.789062 14.09375 28.890625 14.320312 29.035156 C 14.554688 29.183594 14.742188 29.390625 14.890625 29.664062 C 15.039062 29.933594 15.113281 30.285156 15.113281 30.71875 L 15.113281 34.644531 L 13.996094 34.644531 L 13.996094 33.835938 L 13.953125 33.835938 C 13.878906 33.984375 13.769531 34.132812 13.621094 34.277344 C 13.472656 34.417969 13.285156 34.539062 13.050781 34.632812 C 12.820312 34.730469 12.542969 34.777344 12.21875 34.777344 Z M 12.46875 33.851562 C 12.78125 33.851562 13.054688 33.789062 13.277344 33.664062 C 13.503906 33.539062 13.675781 33.371094 13.792969 33.167969 C 13.910156 32.964844 13.972656 32.746094 13.972656 32.511719 L 13.972656 31.75 C 13.929688 31.789062 13.851562 31.828125 13.734375 31.863281 C 13.621094 31.898438 13.488281 31.925781 13.339844 31.953125 C 13.191406 31.976562 13.050781 31.996094 12.910156 32.019531 C 12.769531 32.035156 12.652344 32.050781 12.558594 32.066406 C 12.335938 32.09375 12.136719 32.140625 11.953125 32.207031 C 11.773438 32.273438 11.628906 32.371094 11.519531 32.496094 C 11.410156 32.617188 11.355469 32.785156 11.355469 32.988281 C 11.355469 33.273438 11.460938 33.488281 11.671875 33.636719 C 11.878906 33.777344 12.144531 33.851562 12.46875 33.851562 Z M 16.472656 34.644531 L 16.472656 28.730469 L 17.574219 28.730469 L 17.574219 29.667969 L 17.632812 29.667969 C 17.742188 29.351562 17.929688 29.101562 18.199219 28.917969 C 18.472656 28.734375 18.78125 28.640625 19.121094 28.640625 C 19.195312 28.640625 19.277344 28.640625 19.375 28.648438 C 19.476562 28.652344 19.550781 28.660156 19.609375 28.667969 L 19.609375 29.769531 C 19.5625 29.753906 19.480469 29.742188 19.363281 29.726562 C 19.246094 29.707031 19.128906 29.699219 19.015625 29.699219 C 18.742188 29.699219 18.503906 29.757812 18.292969 29.871094 C 18.082031 29.984375 17.917969 30.144531 17.792969 30.34375 C 17.671875 30.546875 17.613281 30.773438 17.613281 31.03125 L 17.613281 34.644531 Z M 21.484375 32.640625 L 21.476562 31.234375 L 21.675781 31.234375 L 24.011719 28.730469 L 25.375 28.730469 L 22.710938 31.582031 L 22.535156 31.582031 Z M 20.433594 34.644531 L 20.433594 26.757812 L 21.574219 26.757812 L 21.574219 34.644531 Z M 24.136719 34.644531 L 22.035156 31.835938 L 22.824219 31.027344 L 25.535156 34.644531 Z M 28.542969 34.765625 C 27.960938 34.765625 27.464844 34.640625 27.050781 34.390625 C 26.632812 34.140625 26.3125 33.789062 26.085938 33.332031 C 25.863281 32.875 25.75 32.339844 25.75 31.722656 C 25.75 31.121094 25.863281 30.585938 26.085938 30.121094 C 26.3125 29.660156 26.628906 29.300781 27.03125 29.039062 C 27.441406 28.78125 27.914062 28.652344 28.460938 28.652344 C 28.792969 28.652344 29.113281 28.707031 29.421875 28.816406 C 29.730469 28.925781 30.011719 29.101562 30.257812 29.335938 C 30.503906 29.574219 30.699219 29.878906 30.84375 30.257812 C 30.984375 30.632812 31.054688 31.089844 31.054688 31.625 L 31.054688 32.035156 L 26.394531 32.035156 L 26.394531 31.171875 L 29.9375 31.171875 C 29.9375 30.867188 29.878906 30.597656 29.753906 30.367188 C 29.632812 30.128906 29.460938 29.941406 29.238281 29.804688 C 29.019531 29.671875 28.761719 29.601562 28.46875 29.601562 C 28.148438 29.601562 27.867188 29.683594 27.628906 29.839844 C 27.390625 30 27.210938 30.203125 27.078125 30.457031 C 26.953125 30.710938 26.890625 30.984375 26.890625 31.277344 L 26.890625 31.953125 C 26.890625 32.347656 26.957031 32.683594 27.09375 32.960938 C 27.234375 33.238281 27.429688 33.449219 27.679688 33.597656 C 27.925781 33.742188 28.21875 33.8125 28.550781 33.8125 C 28.769531 33.8125 28.964844 33.78125 29.144531 33.722656 C 29.320312 33.65625 29.476562 33.5625 29.605469 33.4375 C 29.734375 33.308594 29.835938 33.15625 29.902344 32.96875 L 30.984375 33.164062 C 30.898438 33.488281 30.742188 33.769531 30.519531 34.011719 C 30.296875 34.246094 30.015625 34.4375 29.683594 34.566406 C 29.347656 34.699219 28.96875 34.765625 28.542969 34.765625 Z M 34.898438 28.730469 L 34.898438 29.652344 L 31.695312 29.652344 L 31.695312 28.730469 Z M 32.554688 27.308594 L 33.695312 27.308594 L 33.695312 32.90625 C 33.695312 33.128906 33.726562 33.300781 33.792969 33.414062 C 33.859375 33.523438 33.945312 33.597656 34.050781 33.640625 C 34.15625 33.679688 34.273438 33.699219 34.398438 33.699219 C 34.488281 33.699219 34.570312 33.691406 34.636719 33.679688 C 34.707031 33.664062 34.761719 33.65625 34.796875 33.648438 L 35.003906 34.597656 C 34.9375 34.625 34.84375 34.648438 34.722656 34.675781 C 34.601562 34.703125 34.445312 34.71875 34.261719 34.722656 C 33.964844 34.726562 33.683594 34.671875 33.425781 34.5625 C 33.164062 34.449219 32.953125 34.273438 32.792969 34.035156 C 32.632812 33.800781 32.554688 33.503906 32.554688 33.148438 Z M 35.996094 34.644531 L 35.996094 28.730469 L 37.140625 28.730469 L 37.140625 34.644531 Z M 36.574219 27.816406 C 36.375 27.816406 36.203125 27.746094 36.0625 27.617188 C 35.921875 27.480469 35.855469 27.316406 35.855469 27.128906 C 35.855469 26.941406 35.921875 26.777344 36.0625 26.644531 C 36.203125 26.507812 36.375 26.441406 36.574219 26.441406 C 36.773438 26.441406 36.941406 26.507812 37.082031 26.644531 C 37.226562 26.777344 37.292969 26.941406 37.292969 27.128906 C 37.292969 27.316406 37.226562 27.480469 37.082031 27.617188 C 36.941406 27.746094 36.773438 27.816406 36.574219 27.816406 Z M 39.65625 31.132812 L 39.65625 34.644531 L 38.515625 34.644531 L 38.515625 28.730469 L 39.609375 28.730469 L 39.609375 29.691406 L 39.683594 29.691406 C 39.816406 29.378906 40.027344 29.128906 40.3125 28.9375 C 40.605469 28.746094 40.96875 28.652344 41.410156 28.652344 C 41.808594 28.652344 42.160156 28.738281 42.457031 28.90625 C 42.761719 29.074219 42.992188 29.320312 43.160156 29.652344 C 43.324219 29.984375 43.40625 30.394531 43.40625 30.882812 L 43.40625 34.644531 L 42.265625 34.644531 L 42.265625 31.019531 C 42.265625 30.589844 42.152344 30.257812 41.933594 30.015625 C 41.710938 29.769531 41.40625 29.648438 41.019531 29.648438 C 40.753906 29.648438 40.519531 29.707031 40.3125 29.824219 C 40.109375 29.9375 39.949219 30.109375 39.828125 30.332031 C 39.710938 30.550781 39.65625 30.816406 39.65625 31.132812 Z M 47.234375 36.988281 C 46.765625 36.988281 46.367188 36.925781 46.03125 36.800781 C 45.699219 36.679688 45.425781 36.515625 45.214844 36.316406 C 45 36.109375 44.847656 35.890625 44.742188 35.648438 L 45.722656 35.238281 C 45.789062 35.351562 45.882812 35.472656 45.996094 35.597656 C 46.113281 35.726562 46.269531 35.835938 46.46875 35.925781 C 46.671875 36.015625 46.929688 36.058594 47.246094 36.058594 C 47.675781 36.058594 48.03125 35.953125 48.316406 35.738281 C 48.601562 35.53125 48.738281 35.191406 48.738281 34.730469 L 48.738281 33.566406 L 48.667969 33.566406 C 48.601562 33.691406 48.5 33.832031 48.371094 33.988281 C 48.242188 34.140625 48.066406 34.273438 47.84375 34.386719 C 47.617188 34.5 47.328125 34.558594 46.96875 34.558594 C 46.507812 34.558594 46.089844 34.449219 45.71875 34.230469 C 45.347656 34.007812 45.054688 33.683594 44.839844 33.253906 C 44.625 32.824219 44.519531 32.292969 44.519531 31.664062 C 44.519531 31.035156 44.625 30.496094 44.835938 30.046875 C 45.050781 29.597656 45.34375 29.253906 45.714844 29.011719 C 46.085938 28.773438 46.507812 28.652344 46.976562 28.652344 C 47.339844 28.652344 47.636719 28.710938 47.859375 28.835938 C 48.082031 28.957031 48.257812 29.097656 48.382812 29.257812 C 48.507812 29.421875 48.605469 29.566406 48.675781 29.6875 L 48.757812 29.6875 L 48.757812 28.730469 L 49.878906 28.730469 L 49.878906 34.777344 C 49.878906 35.285156 49.761719 35.703125 49.527344 36.027344 C 49.292969 36.355469 48.976562 36.59375 48.578125 36.753906 C 48.179688 36.910156 47.730469 36.988281 47.234375 36.988281 Z M 47.21875 33.601562 C 47.546875 33.601562 47.824219 33.523438 48.054688 33.371094 C 48.28125 33.214844 48.457031 32.992188 48.574219 32.699219 C 48.691406 32.40625 48.75 32.058594 48.75 31.648438 C 48.75 31.25 48.695312 30.902344 48.578125 30.597656 C 48.457031 30.292969 48.289062 30.058594 48.058594 29.886719 C 47.835938 29.714844 47.554688 29.628906 47.21875 29.628906 C 46.878906 29.628906 46.59375 29.71875 46.363281 29.898438 C 46.132812 30.078125 45.960938 30.320312 45.84375 30.625 C 45.726562 30.929688 45.671875 31.269531 45.671875 31.648438 C 45.671875 32.035156 45.730469 32.378906 45.847656 32.671875 C 45.964844 32.960938 46.136719 33.191406 46.367188 33.355469 C 46.597656 33.519531 46.882812 33.601562 47.21875 33.601562 Z M 54.023438 34.644531 L 54.023438 26.757812 L 56.808594 26.757812 C 57.414062 26.757812 57.917969 26.867188 58.316406 27.089844 C 58.71875 27.3125 59.019531 27.621094 59.214844 28.007812 C 59.414062 28.394531 59.511719 28.828125 59.511719 29.3125 C 59.511719 29.796875 59.410156 30.230469 59.210938 30.621094 C 59.015625 31.007812 58.710938 31.3125 58.3125 31.535156 C 57.910156 31.757812 57.410156 31.871094 56.804688 31.871094 L 54.886719 31.871094 L 54.886719 30.863281 L 56.695312 30.863281 C 57.082031 30.863281 57.390625 30.796875 57.632812 30.664062 C 57.871094 30.527344 58.046875 30.339844 58.15625 30.109375 C 58.269531 29.875 58.324219 29.609375 58.324219 29.3125 C 58.324219 29.011719 58.269531 28.746094 58.15625 28.515625 C 58.046875 28.285156 57.867188 28.105469 57.628906 27.972656 C 57.386719 27.84375 57.070312 27.777344 56.683594 27.777344 L 55.199219 27.777344 L 55.199219 34.644531 Z M 62.296875 34.777344 C 61.925781 34.777344 61.589844 34.707031 61.289062 34.566406 C 60.988281 34.425781 60.75 34.222656 60.574219 33.957031 C 60.402344 33.6875 60.316406 33.363281 60.316406 32.972656 C 60.316406 32.640625 60.378906 32.363281 60.503906 32.148438 C 60.632812 31.933594 60.804688 31.761719 61.019531 31.636719 C 61.238281 31.511719 61.480469 31.417969 61.746094 31.351562 C 62.015625 31.285156 62.285156 31.238281 62.5625 31.207031 C 62.914062 31.164062 63.199219 31.128906 63.417969 31.105469 C 63.636719 31.078125 63.796875 31.03125 63.894531 30.972656 C 63.996094 30.910156 64.042969 30.808594 64.042969 30.667969 L 64.042969 30.644531 C 64.042969 30.304688 63.949219 30.046875 63.761719 29.859375 C 63.578125 29.675781 63.300781 29.582031 62.929688 29.582031 C 62.546875 29.582031 62.242188 29.671875 62.019531 29.839844 C 61.804688 30.011719 61.652344 30.199219 61.566406 30.40625 L 60.496094 30.160156 C 60.621094 29.800781 60.808594 29.511719 61.050781 29.289062 C 61.296875 29.066406 61.582031 28.90625 61.902344 28.804688 C 62.222656 28.703125 62.558594 28.652344 62.914062 28.652344 C 63.148438 28.652344 63.394531 28.679688 63.660156 28.738281 C 63.921875 28.789062 64.167969 28.890625 64.398438 29.035156 C 64.632812 29.183594 64.820312 29.390625 64.96875 29.664062 C 65.117188 29.933594 65.191406 30.285156 65.191406 30.71875 L 65.191406 34.644531 L 64.074219 34.644531 L 64.074219 33.835938 L 64.03125 33.835938 C 63.957031 33.984375 63.84375 34.132812 63.699219 34.277344 C 63.550781 34.417969 63.359375 34.539062 63.128906 34.632812 C 62.898438 34.730469 62.621094 34.777344 62.296875 34.777344 Z M 62.542969 33.851562 C 62.859375 33.851562 63.128906 33.789062 63.351562 33.664062 C 63.582031 33.539062 63.75 33.371094 63.867188 33.167969 C 63.988281 32.964844 64.046875 32.746094 64.046875 32.511719 L 64.046875 31.75 C 64.007812 31.789062 63.929688 31.828125 63.8125 31.863281 C 63.699219 31.898438 63.566406 31.925781 63.417969 31.953125 C 63.269531 31.976562 63.125 31.996094 62.988281 32.019531 C 62.847656 32.035156 62.730469 32.050781 62.636719 32.066406 C 62.414062 32.09375 62.210938 32.140625 62.027344 32.207031 C 61.847656 32.273438 61.703125 32.371094 61.59375 32.496094 C 61.488281 32.617188 61.433594 32.785156 61.433594 32.988281 C 61.433594 33.273438 61.539062 33.488281 61.746094 33.636719 C 61.953125 33.777344 62.222656 33.851562 62.542969 33.851562 Z M 66.546875 34.644531 L 66.546875 28.730469 L 67.648438 28.730469 L 67.648438 29.667969 L 67.710938 29.667969 C 67.820312 29.351562 68.007812 29.101562 68.277344 28.917969 C 68.550781 28.734375 68.855469 28.640625 69.199219 28.640625 C 69.273438 28.640625 69.355469 28.640625 69.453125 28.648438 C 69.550781 28.652344 69.628906 28.660156 69.683594 28.667969 L 69.683594 29.769531 C 69.640625 29.753906 69.558594 29.742188 69.441406 29.726562 C 69.324219 29.707031 69.207031 29.699219 69.089844 29.699219 C 68.820312 29.699219 68.582031 29.757812 68.367188 29.871094 C 68.160156 29.984375 67.996094 30.144531 67.871094 30.34375 C 67.75 30.546875 67.6875 30.773438 67.6875 31.03125 L 67.6875 34.644531 Z M 73.59375 28.730469 L 73.59375 29.652344 L 70.390625 29.652344 L 70.390625 28.730469 Z M 71.25 27.308594 L 72.390625 27.308594 L 72.390625 32.90625 C 72.390625 33.128906 72.425781 33.300781 72.488281 33.414062 C 72.558594 33.523438 72.640625 33.597656 72.746094 33.640625 C 72.851562 33.679688 72.96875 33.699219 73.09375 33.699219 C 73.1875 33.699219 73.265625 33.691406 73.332031 33.679688 C 73.402344 33.664062 73.457031 33.65625 73.492188 33.648438 L 73.699219 34.597656 C 73.636719 34.625 73.539062 34.648438 73.417969 34.675781 C 73.296875 34.703125 73.144531 34.71875 72.960938 34.722656 C 72.660156 34.726562 72.382812 34.671875 72.121094 34.5625 C 71.863281 34.449219 71.652344 34.273438 71.492188 34.035156 C 71.332031 33.800781 71.25 33.503906 71.25 33.148438 Z M 75.835938 31.132812 L 75.835938 34.644531 L 74.695312 34.644531 L 74.695312 28.730469 L 75.789062 28.730469 L 75.789062 29.691406 L 75.863281 29.691406 C 75.996094 29.378906 76.210938 29.128906 76.496094 28.9375 C 76.785156 28.746094 77.152344 28.652344 77.59375 28.652344 C 77.992188 28.652344 78.339844 28.738281 78.640625 28.90625 C 78.941406 29.074219 79.175781 29.320312 79.339844 29.652344 C 79.503906 29.984375 79.585938 30.394531 79.585938 30.882812 L 79.585938 34.644531 L 78.445312 34.644531 L 78.445312 31.019531 C 78.445312 30.589844 78.335938 30.257812 78.113281 30.015625 C 77.894531 29.769531 77.589844 29.648438 77.203125 29.648438 C 76.9375 29.648438 76.703125 29.707031 76.496094 29.824219 C 76.292969 29.9375 76.132812 30.109375 76.011719 30.332031 C 75.894531 30.550781 75.835938 30.816406 75.835938 31.132812 Z M 83.484375 34.765625 C 82.90625 34.765625 82.40625 34.640625 81.992188 34.390625 C 81.574219 34.140625 81.257812 33.789062 81.03125 33.332031 C 80.804688 32.875 80.695312 32.339844 80.695312 31.722656 C 80.695312 31.121094 80.804688 30.585938 81.03125 30.121094 C 81.257812 29.660156 81.570312 29.300781 81.976562 29.039062 C 82.382812 28.78125 82.859375 28.652344 83.402344 28.652344 C 83.734375 28.652344 84.054688 28.707031 84.367188 28.816406 C 84.675781 28.925781 84.953125 29.101562 85.199219 29.335938 C 85.445312 29.574219 85.640625 29.878906 85.785156 30.257812 C 85.925781 30.632812 86 31.089844 86 31.625 L 86 32.035156 L 81.339844 32.035156 L 81.339844 31.171875 L 84.878906 31.171875 C 84.878906 30.867188 84.820312 30.597656 84.699219 30.367188 C 84.574219 30.128906 84.402344 29.941406 84.179688 29.804688 C 83.964844 29.671875 83.707031 29.601562 83.410156 29.601562 C 83.089844 29.601562 82.808594 29.683594 82.570312 29.839844 C 82.332031 30 82.152344 30.203125 82.023438 30.457031 C 81.894531 30.710938 81.832031 30.984375 81.832031 31.277344 L 81.832031 31.953125 C 81.832031 32.347656 81.902344 32.683594 82.035156 32.960938 C 82.175781 33.238281 82.371094 33.449219 82.621094 33.597656 C 82.871094 33.742188 83.160156 33.8125 83.496094 33.8125 C 83.710938 33.8125 83.90625 33.78125 84.085938 33.722656 C 84.265625 33.65625 84.417969 33.5625 84.546875 33.4375 C 84.675781 33.308594 84.777344 33.15625 84.84375 32.96875 L 85.925781 33.164062 C 85.839844 33.488281 85.683594 33.769531 85.460938 34.011719 C 85.238281 34.246094 84.960938 34.4375 84.625 34.566406 C 84.292969 34.699219 83.910156 34.765625 83.484375 34.765625 Z M 87.101562 34.644531 L 87.101562 28.730469 L 88.207031 28.730469 L 88.207031 29.667969 L 88.265625 29.667969 C 88.375 29.351562 88.5625 29.101562 88.832031 28.917969 C 89.105469 28.734375 89.414062 28.640625 89.753906 28.640625 C 89.828125 28.640625 89.910156 28.640625 90.007812 28.648438 C 90.105469 28.652344 90.183594 28.660156 90.238281 28.667969 L 90.238281 29.769531 C 90.195312 29.753906 90.113281 29.742188 89.996094 29.726562 C 89.878906 29.707031 89.761719 29.699219 89.644531 29.699219 C 89.375 29.699219 89.136719 29.757812 88.925781 29.871094 C 88.714844 29.984375 88.546875 30.144531 88.425781 30.34375 C 88.304688 30.546875 88.246094 30.773438 88.246094 31.03125 L 88.246094 34.644531 Z M 87.101562 34.644531 "/>
<path style=" stroke:none;fill-rule:nonzero;fill:rgb(99.607843%,17.254902%,33.333333%);fill-opacity:1;" d="M 1.707031 26.167969 L 3.136719 26.167969 L 5.625 32.300781 L 5.714844 32.300781 L 8.203125 26.167969 L 9.632812 26.167969 L 9.632812 34.058594 L 8.511719 34.058594 L 8.511719 28.347656 L 8.441406 28.347656 L 6.132812 34.046875 L 5.203125 34.046875 L 2.898438 28.34375 L 2.828125 28.34375 L 2.828125 34.058594 L 1.707031 34.058594 Z M 12.804688 34.1875 C 12.429688 34.1875 12.09375 34.117188 11.796875 33.980469 C 11.496094 33.839844 11.257812 33.632812 11.082031 33.367188 C 10.910156 33.101562 10.824219 32.773438 10.824219 32.386719 C 10.824219 32.050781 10.886719 31.777344 11.011719 31.5625 C 11.140625 31.34375 11.3125 31.171875 11.527344 31.046875 C 11.742188 30.921875 11.984375 30.828125 12.253906 30.761719 C 12.519531 30.699219 12.792969 30.652344 13.070312 30.617188 C 13.421875 30.578125 13.707031 30.542969 13.925781 30.515625 C 14.144531 30.488281 14.304688 30.445312 14.402344 30.382812 C 14.5 30.320312 14.550781 30.21875 14.550781 30.082031 L 14.550781 30.054688 C 14.550781 29.71875 14.457031 29.457031 14.269531 29.273438 C 14.082031 29.089844 13.804688 28.996094 13.4375 28.996094 C 13.050781 28.996094 12.75 29.082031 12.527344 29.253906 C 12.308594 29.421875 12.160156 29.613281 12.074219 29.820312 L 11 29.574219 C 11.128906 29.214844 11.316406 28.921875 11.558594 28.703125 C 11.804688 28.480469 12.089844 28.316406 12.410156 28.214844 C 12.730469 28.113281 13.066406 28.0625 13.421875 28.0625 C 13.65625 28.0625 13.902344 28.089844 14.164062 28.148438 C 14.429688 28.203125 14.675781 28.300781 14.90625 28.449219 C 15.136719 28.59375 15.328125 28.804688 15.472656 29.074219 C 15.621094 29.347656 15.695312 29.695312 15.695312 30.128906 L 15.695312 34.058594 L 14.582031 34.058594 L 14.582031 33.25 L 14.535156 33.25 C 14.460938 33.398438 14.351562 33.542969 14.203125 33.6875 C 14.054688 33.832031 13.867188 33.949219 13.632812 34.046875 C 13.402344 34.140625 13.125 34.1875 12.804688 34.1875 Z M 13.050781 33.261719 C 13.367188 33.261719 13.636719 33.199219 13.859375 33.074219 C 14.085938 32.949219 14.257812 32.785156 14.375 32.582031 C 14.496094 32.375 14.554688 32.15625 14.554688 31.921875 L 14.554688 31.160156 C 14.511719 31.199219 14.433594 31.238281 14.316406 31.273438 C 14.203125 31.308594 14.070312 31.339844 13.925781 31.363281 C 13.777344 31.386719 13.632812 31.410156 13.492188 31.429688 C 13.351562 31.449219 13.234375 31.460938 13.140625 31.476562 C 12.921875 31.503906 12.71875 31.550781 12.535156 31.621094 C 12.355469 31.683594 12.210938 31.78125 12.101562 31.90625 C 11.996094 32.03125 11.941406 32.195312 11.941406 32.398438 C 11.941406 32.683594 12.042969 32.902344 12.253906 33.046875 C 12.460938 33.191406 12.726562 33.261719 13.050781 33.261719 Z M 17.054688 34.058594 L 17.054688 28.140625 L 18.15625 28.140625 L 18.15625 29.078125 L 18.21875 29.078125 C 18.324219 28.761719 18.511719 28.511719 18.785156 28.328125 C 19.054688 28.144531 19.363281 28.050781 19.707031 28.050781 C 19.777344 28.050781 19.863281 28.054688 19.957031 28.058594 C 20.058594 28.0625 20.132812 28.070312 20.191406 28.078125 L 20.191406 29.179688 C 20.144531 29.167969 20.066406 29.152344 19.949219 29.136719 C 19.832031 29.117188 19.714844 29.109375 19.597656 29.109375 C 19.324219 29.109375 19.085938 29.167969 18.875 29.285156 C 18.667969 29.398438 18.5 29.554688 18.378906 29.757812 C 18.257812 29.957031 18.195312 30.1875 18.195312 30.445312 L 18.195312 34.058594 Z M 22.066406 32.050781 L 22.058594 30.644531 L 22.257812 30.644531 L 24.59375 28.140625 L 25.960938 28.140625 L 23.296875 30.988281 L 23.117188 30.988281 Z M 21.015625 34.058594 L 21.015625 26.167969 L 22.15625 26.167969 L 22.15625 34.058594 Z M 24.71875 34.058594 L 22.621094 31.246094 L 23.40625 30.441406 L 26.121094 34.058594 Z M 29.125 34.175781 C 28.546875 34.175781 28.046875 34.050781 27.632812 33.800781 C 27.21875 33.550781 26.898438 33.195312 26.667969 32.742188 C 26.445312 32.285156 26.335938 31.75 26.335938 31.136719 C 26.335938 30.53125 26.445312 29.996094 26.667969 29.535156 C 26.898438 29.070312 27.210938 28.710938 27.617188 28.453125 C 28.023438 28.191406 28.5 28.0625 29.042969 28.0625 C 29.375 28.0625 29.695312 28.117188 30.003906 28.230469 C 30.316406 28.339844 30.59375 28.511719 30.84375 28.75 C 31.089844 28.984375 31.285156 29.292969 31.425781 29.671875 C 31.570312 30.042969 31.636719 30.5 31.636719 31.035156 L 31.636719 31.445312 L 26.980469 31.445312 L 26.980469 30.582031 L 30.519531 30.582031 C 30.519531 30.277344 30.460938 30.011719 30.335938 29.777344 C 30.214844 29.539062 30.042969 29.355469 29.820312 29.21875 C 29.605469 29.082031 29.347656 29.011719 29.050781 29.011719 C 28.730469 29.011719 28.449219 29.09375 28.210938 29.253906 C 27.976562 29.410156 27.792969 29.613281 27.664062 29.871094 C 27.535156 30.121094 27.472656 30.394531 27.472656 30.691406 L 27.472656 31.363281 C 27.472656 31.757812 27.539062 32.097656 27.675781 32.371094 C 27.816406 32.652344 28.011719 32.863281 28.261719 33.007812 C 28.511719 33.152344 28.800781 33.226562 29.132812 33.226562 C 29.351562 33.226562 29.550781 33.195312 29.726562 33.132812 C 29.902344 33.070312 30.058594 32.972656 30.1875 32.847656 C 30.320312 32.722656 30.417969 32.566406 30.488281 32.382812 L 31.566406 32.578125 C 31.480469 32.898438 31.324219 33.179688 31.101562 33.421875 C 30.878906 33.660156 30.601562 33.847656 30.265625 33.980469 C 29.929688 34.113281 29.550781 34.175781 29.125 34.175781 Z M 35.480469 28.140625 L 35.480469 29.066406 L 32.277344 29.066406 L 32.277344 28.140625 Z M 33.136719 26.722656 L 34.277344 26.722656 L 34.277344 32.320312 C 34.277344 32.542969 34.3125 32.710938 34.375 32.824219 C 34.445312 32.933594 34.527344 33.011719 34.632812 33.050781 C 34.738281 33.089844 34.855469 33.109375 34.980469 33.109375 C 35.070312 33.109375 35.152344 33.101562 35.21875 33.089844 C 35.289062 33.078125 35.34375 33.066406 35.378906 33.058594 L 35.585938 34.011719 C 35.523438 34.035156 35.425781 34.0625 35.304688 34.085938 C 35.183594 34.117188 35.027344 34.132812 34.847656 34.132812 C 34.546875 34.136719 34.265625 34.085938 34.007812 33.972656 C 33.75 33.859375 33.535156 33.683594 33.375 33.449219 C 33.214844 33.210938 33.136719 32.914062 33.136719 32.558594 Z M 36.582031 34.058594 L 36.582031 28.140625 L 37.722656 28.140625 L 37.722656 34.058594 Z M 37.15625 27.226562 C 36.957031 27.226562 36.789062 27.160156 36.644531 27.027344 C 36.507812 26.890625 36.4375 26.726562 36.4375 26.542969 C 36.4375 26.351562 36.507812 26.1875 36.644531 26.054688 C 36.789062 25.921875 36.957031 25.851562 37.15625 25.851562 C 37.355469 25.851562 37.523438 25.921875 37.664062 26.054688 C 37.808594 26.1875 37.878906 26.351562 37.878906 26.542969 C 37.878906 26.726562 37.808594 26.890625 37.664062 27.027344 C 37.523438 27.160156 37.355469 27.226562 37.15625 27.226562 Z M 40.238281 30.542969 L 40.238281 34.058594 L 39.097656 34.058594 L 39.097656 28.140625 L 40.191406 28.140625 L 40.191406 29.101562 L 40.265625 29.101562 C 40.398438 28.789062 40.609375 28.539062 40.898438 28.347656 C 41.1875 28.160156 41.554688 28.0625 41.992188 28.0625 C 42.394531 28.0625 42.742188 28.148438 43.042969 28.316406 C 43.34375 28.484375 43.574219 28.734375 43.742188 29.066406 C 43.90625 29.394531 43.988281 29.804688 43.988281 30.292969 L 43.988281 34.058594 L 42.847656 34.058594 L 42.847656 30.433594 C 42.847656 30.003906 42.738281 29.667969 42.515625 29.425781 C 42.292969 29.183594 41.992188 29.0625 41.601562 29.0625 C 41.339844 29.0625 41.105469 29.117188 40.898438 29.234375 C 40.695312 29.351562 40.53125 29.519531 40.414062 29.742188 C 40.296875 29.964844 40.238281 30.230469 40.238281 30.542969 Z M 47.816406 36.398438 C 47.351562 36.398438 46.949219 36.335938 46.613281 36.214844 C 46.28125 36.089844 46.007812 35.929688 45.796875 35.722656 C 45.585938 35.523438 45.429688 35.300781 45.324219 35.058594 L 46.304688 34.648438 C 46.371094 34.765625 46.464844 34.882812 46.578125 35.007812 C 46.695312 35.136719 46.855469 35.246094 47.050781 35.335938 C 47.253906 35.425781 47.511719 35.46875 47.828125 35.46875 C 48.257812 35.46875 48.617188 35.363281 48.898438 35.148438 C 49.183594 34.9375 49.324219 34.601562 49.324219 34.140625 L 49.324219 32.976562 L 49.25 32.976562 C 49.183594 33.105469 49.082031 33.246094 48.953125 33.398438 C 48.824219 33.550781 48.652344 33.6875 48.425781 33.800781 C 48.203125 33.910156 47.910156 33.96875 47.554688 33.96875 C 47.089844 33.96875 46.671875 33.859375 46.300781 33.640625 C 45.929688 33.417969 45.640625 33.09375 45.421875 32.667969 C 45.210938 32.234375 45.101562 31.703125 45.101562 31.074219 C 45.101562 30.445312 45.207031 29.90625 45.417969 29.457031 C 45.632812 29.007812 45.925781 28.664062 46.296875 28.425781 C 46.667969 28.183594 47.089844 28.0625 47.5625 28.0625 C 47.925781 28.0625 48.21875 28.125 48.441406 28.246094 C 48.664062 28.371094 48.839844 28.511719 48.964844 28.671875 C 49.09375 28.832031 49.191406 28.976562 49.257812 29.097656 L 49.34375 29.097656 L 49.34375 28.140625 L 50.460938 28.140625 L 50.460938 34.1875 C 50.460938 34.695312 50.34375 35.113281 50.109375 35.4375 C 49.875 35.765625 49.558594 36.007812 49.160156 36.164062 C 48.761719 36.320312 48.3125 36.398438 47.816406 36.398438 Z M 47.804688 33.011719 C 48.132812 33.011719 48.410156 32.9375 48.636719 32.78125 C 48.863281 32.625 49.039062 32.402344 49.15625 32.109375 C 49.273438 31.820312 49.335938 31.46875 49.335938 31.058594 C 49.335938 30.660156 49.277344 30.308594 49.160156 30.007812 C 49.042969 29.707031 48.871094 29.46875 48.644531 29.296875 C 48.417969 29.128906 48.136719 29.039062 47.804688 29.039062 C 47.460938 29.039062 47.175781 29.132812 46.945312 29.3125 C 46.71875 29.488281 46.542969 29.730469 46.425781 30.035156 C 46.3125 30.339844 46.253906 30.683594 46.253906 31.058594 C 46.253906 31.449219 46.3125 31.789062 46.429688 32.078125 C 46.546875 32.371094 46.71875 32.601562 46.949219 32.765625 C 47.179688 32.929688 47.464844 33.011719 47.804688 33.011719 Z M 54.605469 34.058594 L 54.605469 26.167969 L 57.390625 26.167969 C 57.996094 26.167969 58.503906 26.28125 58.902344 26.503906 C 59.300781 26.726562 59.601562 27.03125 59.796875 27.417969 C 59.996094 27.804688 60.09375 28.238281 60.09375 28.722656 C 60.09375 29.207031 59.996094 29.644531 59.796875 30.03125 C 59.597656 30.414062 59.296875 30.722656 58.894531 30.949219 C 58.496094 31.171875 57.992188 31.28125 57.386719 31.28125 L 55.472656 31.28125 L 55.472656 30.273438 L 57.28125 30.273438 C 57.664062 30.273438 57.976562 30.207031 58.214844 30.074219 C 58.453125 29.9375 58.628906 29.753906 58.742188 29.519531 C 58.855469 29.285156 58.910156 29.019531 58.910156 28.722656 C 58.910156 28.421875 58.855469 28.160156 58.742188 27.925781 C 58.628906 27.695312 58.453125 27.515625 58.210938 27.382812 C 57.972656 27.253906 57.65625 27.1875 57.265625 27.1875 L 55.78125 27.1875 L 55.78125 34.058594 Z M 62.878906 34.1875 C 62.507812 34.1875 62.171875 34.117188 61.871094 33.980469 C 61.570312 33.839844 61.332031 33.632812 61.160156 33.367188 C 60.984375 33.101562 60.898438 32.773438 60.898438 32.386719 C 60.898438 32.050781 60.960938 31.777344 61.089844 31.5625 C 61.214844 31.34375 61.386719 31.171875 61.605469 31.046875 C 61.820312 30.921875 62.0625 30.828125 62.332031 30.761719 C 62.597656 30.699219 62.871094 30.652344 63.148438 30.617188 C 63.5 30.578125 63.785156 30.542969 64 30.515625 C 64.222656 30.488281 64.378906 30.445312 64.480469 30.382812 C 64.578125 30.320312 64.628906 30.21875 64.628906 30.082031 L 64.628906 30.054688 C 64.628906 29.71875 64.53125 29.457031 64.347656 29.273438 C 64.160156 29.089844 63.882812 28.996094 63.511719 28.996094 C 63.128906 28.996094 62.824219 29.082031 62.605469 29.253906 C 62.386719 29.421875 62.234375 29.613281 62.148438 29.820312 L 61.078125 29.574219 C 61.207031 29.214844 61.390625 28.921875 61.632812 28.703125 C 61.882812 28.480469 62.167969 28.316406 62.488281 28.214844 C 62.804688 28.113281 63.144531 28.0625 63.5 28.0625 C 63.730469 28.0625 63.980469 28.089844 64.242188 28.148438 C 64.507812 28.203125 64.753906 28.300781 64.980469 28.449219 C 65.214844 28.59375 65.402344 28.804688 65.550781 29.074219 C 65.699219 29.347656 65.773438 29.695312 65.773438 30.128906 L 65.773438 34.058594 L 64.65625 34.058594 L 64.65625 33.25 L 64.613281 33.25 C 64.539062 33.398438 64.429688 33.542969 64.28125 33.6875 C 64.132812 33.832031 63.945312 33.949219 63.710938 34.046875 C 63.480469 34.140625 63.203125 34.1875 62.878906 34.1875 Z M 63.125 33.261719 C 63.441406 33.261719 63.710938 33.199219 63.9375 33.074219 C 64.164062 32.949219 64.335938 32.785156 64.453125 32.582031 C 64.570312 32.375 64.632812 32.15625 64.632812 31.921875 L 64.632812 31.160156 C 64.589844 31.199219 64.511719 31.238281 64.394531 31.273438 C 64.28125 31.308594 64.148438 31.339844 64 31.363281 C 63.851562 31.386719 63.710938 31.410156 63.570312 31.429688 C 63.429688 31.449219 63.3125 31.460938 63.21875 31.476562 C 62.996094 31.503906 62.796875 31.550781 62.613281 31.621094 C 62.429688 31.683594 62.289062 31.78125 62.175781 31.90625 C 62.070312 32.03125 62.015625 32.195312 62.015625 32.398438 C 62.015625 32.683594 62.121094 32.902344 62.332031 33.046875 C 62.539062 33.191406 62.804688 33.261719 63.125 33.261719 Z M 67.132812 34.058594 L 67.132812 28.140625 L 68.234375 28.140625 L 68.234375 29.078125 L 68.292969 29.078125 C 68.402344 28.761719 68.589844 28.511719 68.859375 28.328125 C 69.132812 28.144531 69.441406 28.050781 69.78125 28.050781 C 69.855469 28.050781 69.9375 28.054688 70.035156 28.058594 C 70.132812 28.0625 70.210938 28.070312 70.265625 28.078125 L 70.265625 29.179688 C 70.222656 29.167969 70.140625 29.152344 70.023438 29.136719 C 69.90625 29.117188 69.789062 29.109375 69.671875 29.109375 C 69.402344 29.109375 69.164062 29.167969 68.953125 29.285156 C 68.742188 29.398438 68.578125 29.554688 68.453125 29.757812 C 68.332031 29.957031 68.273438 30.1875 68.273438 30.445312 L 68.273438 34.058594 Z M 74.175781 28.140625 L 74.175781 29.066406 L 70.976562 29.066406 L 70.976562 28.140625 Z M 71.832031 26.722656 L 72.972656 26.722656 L 72.972656 32.320312 C 72.972656 32.542969 73.007812 32.710938 73.074219 32.824219 C 73.140625 32.933594 73.226562 33.011719 73.328125 33.050781 C 73.4375 33.089844 73.554688 33.109375 73.675781 33.109375 C 73.769531 33.109375 73.847656 33.101562 73.917969 33.089844 C 73.984375 33.078125 74.039062 33.066406 74.078125 33.058594 L 74.285156 34.011719 C 74.21875 34.035156 74.125 34.0625 74 34.085938 C 73.878906 34.117188 73.726562 34.132812 73.542969 34.132812 C 73.242188 34.136719 72.964844 34.085938 72.703125 33.972656 C 72.445312 33.859375 72.234375 33.683594 72.074219 33.449219 C 71.914062 33.210938 71.832031 32.914062 71.832031 32.558594 Z M 76.417969 30.542969 L 76.417969 34.058594 L 75.277344 34.058594 L 75.277344 28.140625 L 76.375 28.140625 L 76.375 29.101562 L 76.445312 29.101562 C 76.582031 28.789062 76.792969 28.539062 77.078125 28.347656 C 77.367188 28.160156 77.734375 28.0625 78.175781 28.0625 C 78.574219 28.0625 78.925781 28.148438 79.222656 28.316406 C 79.523438 28.484375 79.757812 28.734375 79.921875 29.066406 C 80.089844 29.394531 80.171875 29.804688 80.171875 30.292969 L 80.171875 34.058594 L 79.027344 34.058594 L 79.027344 30.433594 C 79.027344 30.003906 78.917969 29.667969 78.699219 29.425781 C 78.476562 29.183594 78.171875 29.0625 77.785156 29.0625 C 77.519531 29.0625 77.285156 29.117188 77.078125 29.234375 C 76.875 29.351562 76.714844 29.519531 76.59375 29.742188 C 76.476562 29.964844 76.417969 30.230469 76.417969 30.542969 Z M 84.066406 34.175781 C 83.488281 34.175781 82.992188 34.050781 82.574219 33.800781 C 82.160156 33.550781 81.839844 33.195312 81.613281 32.742188 C 81.390625 32.285156 81.277344 31.75 81.277344 31.136719 C 81.277344 30.53125 81.390625 29.996094 81.613281 29.535156 C 81.839844 29.070312 82.15625 28.710938 82.558594 28.453125 C 82.964844 28.191406 83.441406 28.0625 83.984375 28.0625 C 84.316406 28.0625 84.636719 28.117188 84.949219 28.230469 C 85.257812 28.339844 85.539062 28.511719 85.785156 28.75 C 86.03125 28.984375 86.226562 29.292969 86.367188 29.671875 C 86.511719 30.042969 86.582031 30.5 86.582031 31.035156 L 86.582031 31.445312 L 81.921875 31.445312 L 81.921875 30.582031 L 85.464844 30.582031 C 85.464844 30.277344 85.402344 30.011719 85.28125 29.777344 C 85.15625 29.539062 84.984375 29.355469 84.761719 29.21875 C 84.546875 29.082031 84.289062 29.011719 83.992188 29.011719 C 83.671875 29.011719 83.390625 29.09375 83.15625 29.253906 C 82.917969 29.410156 82.734375 29.613281 82.605469 29.871094 C 82.476562 30.121094 82.414062 30.394531 82.414062 30.691406 L 82.414062 31.363281 C 82.414062 31.757812 82.484375 32.097656 82.621094 32.371094 C 82.761719 32.652344 82.957031 32.863281 83.203125 33.007812 C 83.453125 33.152344 83.746094 33.226562 84.078125 33.226562 C 84.292969 33.226562 84.492188 33.195312 84.667969 33.132812 C 84.847656 33.070312 85 32.972656 85.132812 32.847656 C 85.261719 32.722656 85.359375 32.566406 85.429688 32.382812 L 86.507812 32.578125 C 86.421875 32.898438 86.269531 33.179688 86.042969 33.421875 C 85.824219 33.660156 85.542969 33.847656 85.207031 33.980469 C 84.875 34.113281 84.496094 34.175781 84.066406 34.175781 Z M 87.6875 34.058594 L 87.6875 28.140625 L 88.789062 28.140625 L 88.789062 29.078125 L 88.851562 29.078125 C 88.957031 28.761719 89.144531 28.511719 89.414062 28.328125 C 89.6875 28.144531 89.996094 28.050781 90.339844 28.050781 C 90.410156 28.050781 90.492188 28.054688 90.589844 28.058594 C 90.6875 28.0625 90.765625 28.070312 90.824219 28.078125 L 90.824219 29.179688 C 90.777344 29.167969 90.695312 29.152344 90.582031 29.136719 C 90.460938 29.117188 90.347656 29.109375 90.226562 29.109375 C 89.957031 29.109375 89.71875 29.167969 89.507812 29.285156 C 89.296875 29.398438 89.132812 29.554688 89.011719 29.757812 C 88.890625 29.957031 88.828125 30.1875 88.828125 30.445312 L 88.828125 34.058594 Z M 87.6875 34.058594 "/>
<path style=" stroke:none;fill-rule:nonzero;fill:rgb(10.196078%,9.803922%,9.803922%);fill-opacity:1;" d="M 1.371094 26.421875 L 2.800781 26.421875 L 5.292969 32.550781 L 5.382812 32.550781 L 7.871094 26.421875 L 9.300781 26.421875 L 9.300781 34.308594 L 8.179688 34.308594 L 8.179688 28.601562 L 8.105469 28.601562 L 5.800781 34.296875 L 4.871094 34.296875 L 2.566406 28.597656 L 2.492188 28.597656 L 2.492188 34.308594 L 1.371094 34.308594 Z M 12.46875 34.441406 C 12.097656 34.441406 11.761719 34.371094 11.460938 34.230469 C 11.160156 34.089844 10.921875 33.886719 10.75 33.621094 C 10.578125 33.351562 10.488281 33.027344 10.488281 32.636719 C 10.488281 32.300781 10.550781 32.027344 10.679688 31.8125 C 10.804688 31.597656 10.976562 31.425781 11.195312 31.300781 C 11.410156 31.175781 11.652344 31.082031 11.921875 31.015625 C 12.1875 30.949219 12.460938 30.902344 12.738281 30.871094 C 13.089844 30.828125 13.375 30.796875 13.589844 30.769531 C 13.8125 30.738281 13.96875 30.695312 14.070312 30.632812 C 14.167969 30.574219 14.21875 30.472656 14.21875 30.332031 L 14.21875 30.304688 C 14.21875 29.96875 14.121094 29.710938 13.9375 29.527344 C 13.75 29.339844 13.472656 29.246094 13.101562 29.246094 C 12.71875 29.246094 12.414062 29.332031 12.195312 29.503906 C 11.976562 29.675781 11.824219 29.863281 11.738281 30.070312 L 10.667969 29.824219 C 10.796875 29.464844 10.980469 29.175781 11.226562 28.953125 C 11.472656 28.730469 11.757812 28.570312 12.078125 28.46875 C 12.398438 28.367188 12.734375 28.316406 13.089844 28.316406 C 13.324219 28.316406 13.570312 28.34375 13.832031 28.402344 C 14.097656 28.453125 14.34375 28.554688 14.574219 28.699219 C 14.804688 28.847656 14.992188 29.058594 15.140625 29.328125 C 15.289062 29.597656 15.363281 29.949219 15.363281 30.378906 L 15.363281 34.308594 L 14.246094 34.308594 L 14.246094 33.5 L 14.203125 33.5 C 14.128906 33.648438 14.019531 33.796875 13.871094 33.941406 C 13.722656 34.082031 13.535156 34.203125 13.300781 34.296875 C 13.070312 34.390625 12.792969 34.441406 12.46875 34.441406 Z M 12.71875 33.515625 C 13.03125 33.515625 13.300781 33.453125 13.527344 33.328125 C 13.753906 33.199219 13.925781 33.035156 14.042969 32.832031 C 14.160156 32.628906 14.222656 32.40625 14.222656 32.175781 L 14.222656 31.414062 C 14.179688 31.453125 14.101562 31.492188 13.984375 31.527344 C 13.871094 31.5625 13.738281 31.589844 13.589844 31.617188 C 13.445312 31.640625 13.300781 31.660156 13.160156 31.679688 C 13.019531 31.699219 12.902344 31.714844 12.808594 31.730469 C 12.585938 31.753906 12.386719 31.804688 12.203125 31.871094 C 12.019531 31.9375 11.878906 32.035156 11.765625 32.160156 C 11.660156 32.28125 11.605469 32.449219 11.605469 32.652344 C 11.605469 32.9375 11.710938 33.152344 11.921875 33.300781 C 12.128906 33.445312 12.394531 33.515625 12.71875 33.515625 Z M 16.722656 34.308594 L 16.722656 28.390625 L 17.824219 28.390625 L 17.824219 29.332031 L 17.886719 29.332031 C 17.992188 29.011719 18.179688 28.765625 18.449219 28.578125 C 18.722656 28.394531 19.03125 28.304688 19.371094 28.304688 C 19.445312 28.304688 19.527344 28.304688 19.625 28.3125 C 19.722656 28.316406 19.800781 28.320312 19.855469 28.332031 L 19.855469 29.433594 C 19.8125 29.421875 19.730469 29.40625 19.613281 29.390625 C 19.496094 29.371094 19.378906 29.363281 19.261719 29.363281 C 18.992188 29.363281 18.753906 29.421875 18.542969 29.535156 C 18.332031 29.648438 18.167969 29.804688 18.046875 30.011719 C 17.925781 30.210938 17.863281 30.4375 17.863281 30.695312 L 17.863281 34.308594 Z M 21.734375 32.300781 L 21.726562 30.898438 L 21.925781 30.898438 L 24.261719 28.390625 L 25.625 28.390625 L 22.960938 31.242188 L 22.785156 31.242188 Z M 20.683594 34.308594 L 20.683594 26.421875 L 21.824219 26.421875 L 21.824219 34.308594 Z M 24.386719 34.308594 L 22.289062 31.496094 L 23.074219 30.691406 L 25.785156 34.308594 Z M 28.792969 34.429688 C 28.210938 34.429688 27.714844 34.304688 27.296875 34.054688 C 26.882812 33.804688 26.5625 33.449219 26.335938 32.996094 C 26.113281 32.539062 26 32.003906 26 31.390625 C 26 30.78125 26.113281 30.25 26.335938 29.785156 C 26.5625 29.324219 26.878906 28.964844 27.28125 28.703125 C 27.6875 28.445312 28.164062 28.316406 28.710938 28.316406 C 29.042969 28.316406 29.363281 28.371094 29.671875 28.480469 C 29.980469 28.589844 30.261719 28.765625 30.507812 29 C 30.753906 29.238281 30.949219 29.542969 31.09375 29.921875 C 31.234375 30.296875 31.304688 30.753906 31.304688 31.289062 L 31.304688 31.699219 L 26.644531 31.699219 L 26.644531 30.835938 L 30.1875 30.835938 C 30.1875 30.53125 30.125 30.261719 30.003906 30.03125 C 29.882812 29.792969 29.710938 29.605469 29.488281 29.46875 C 29.269531 29.332031 29.011719 29.269531 28.71875 29.269531 C 28.398438 29.269531 28.117188 29.347656 27.878906 29.503906 C 27.640625 29.660156 27.460938 29.867188 27.328125 30.121094 C 27.199219 30.375 27.136719 30.648438 27.136719 30.941406 L 27.136719 31.617188 C 27.136719 32.011719 27.207031 32.347656 27.34375 32.625 C 27.484375 32.902344 27.679688 33.113281 27.925781 33.261719 C 28.179688 33.40625 28.46875 33.476562 28.800781 33.476562 C 29.015625 33.476562 29.214844 33.445312 29.394531 33.382812 C 29.570312 33.320312 29.726562 33.226562 29.855469 33.101562 C 29.984375 32.972656 30.085938 32.820312 30.152344 32.632812 L 31.234375 32.828125 C 31.144531 33.152344 30.992188 33.433594 30.769531 33.671875 C 30.546875 33.914062 30.265625 34.097656 29.933594 34.230469 C 29.597656 34.363281 29.21875 34.429688 28.792969 34.429688 Z M 35.144531 28.390625 L 35.144531 29.316406 L 31.945312 29.316406 L 31.945312 28.390625 Z M 32.804688 26.972656 L 33.945312 26.972656 L 33.945312 32.570312 C 33.945312 32.796875 33.976562 32.964844 34.042969 33.078125 C 34.109375 33.1875 34.195312 33.261719 34.300781 33.304688 C 34.40625 33.339844 34.523438 33.363281 34.648438 33.363281 C 34.738281 33.363281 34.820312 33.355469 34.886719 33.339844 C 34.953125 33.328125 35.011719 33.320312 35.046875 33.308594 L 35.253906 34.261719 C 35.1875 34.289062 35.09375 34.3125 34.972656 34.339844 C 34.847656 34.367188 34.695312 34.382812 34.515625 34.386719 C 34.214844 34.390625 33.933594 34.335938 33.675781 34.226562 C 33.414062 34.113281 33.203125 33.9375 33.042969 33.699219 C 32.882812 33.464844 32.804688 33.167969 32.804688 32.8125 Z M 36.25 34.308594 L 36.25 28.390625 L 37.390625 28.390625 L 37.390625 34.308594 Z M 36.824219 27.480469 C 36.625 27.480469 36.457031 27.410156 36.3125 27.277344 C 36.171875 27.144531 36.101562 26.980469 36.101562 26.792969 C 36.101562 26.605469 36.171875 26.441406 36.3125 26.308594 C 36.457031 26.171875 36.625 26.105469 36.824219 26.105469 C 37.023438 26.105469 37.191406 26.171875 37.332031 26.308594 C 37.472656 26.441406 37.546875 26.605469 37.546875 26.792969 C 37.546875 26.980469 37.472656 27.144531 37.332031 27.277344 C 37.191406 27.410156 37.023438 27.480469 36.824219 27.480469 Z M 39.902344 30.796875 L 39.902344 34.308594 L 38.761719 34.308594 L 38.761719 28.390625 L 39.859375 28.390625 L 39.859375 29.355469 L 39.929688 29.355469 C 40.066406 29.042969 40.277344 28.789062 40.5625 28.601562 C 40.855469 28.410156 41.21875 28.316406 41.660156 28.316406 C 42.058594 28.316406 42.410156 28.402344 42.710938 28.570312 C 43.007812 28.738281 43.242188 28.984375 43.40625 29.316406 C 43.574219 29.648438 43.65625 30.058594 43.65625 30.546875 L 43.65625 34.308594 L 42.515625 34.308594 L 42.515625 30.683594 C 42.515625 30.253906 42.402344 29.921875 42.183594 29.679688 C 41.960938 29.433594 41.65625 29.3125 41.269531 29.3125 C 41.003906 29.3125 40.769531 29.371094 40.5625 29.488281 C 40.359375 29.601562 40.199219 29.769531 40.078125 29.996094 C 39.964844 30.214844 39.902344 30.480469 39.902344 30.796875 Z M 47.484375 36.652344 C 47.015625 36.652344 46.617188 36.589844 46.28125 36.46875 C 45.949219 36.34375 45.675781 36.179688 45.464844 35.976562 C 45.253906 35.773438 45.09375 35.550781 44.992188 35.3125 L 45.96875 34.902344 C 46.039062 35.015625 46.132812 35.136719 46.246094 35.261719 C 46.363281 35.390625 46.519531 35.5 46.71875 35.585938 C 46.921875 35.679688 47.179688 35.722656 47.492188 35.722656 C 47.925781 35.722656 48.285156 35.617188 48.566406 35.402344 C 48.847656 35.191406 48.988281 34.855469 48.988281 34.394531 L 48.988281 33.230469 L 48.917969 33.230469 C 48.847656 33.355469 48.75 33.496094 48.621094 33.652344 C 48.492188 33.804688 48.316406 33.9375 48.09375 34.050781 C 47.867188 34.164062 47.578125 34.222656 47.21875 34.222656 C 46.757812 34.222656 46.339844 34.113281 45.96875 33.894531 C 45.597656 33.671875 45.304688 33.347656 45.089844 32.917969 C 44.875 32.488281 44.769531 31.957031 44.769531 31.328125 C 44.769531 30.699219 44.875 30.160156 45.085938 29.710938 C 45.300781 29.257812 45.59375 28.917969 45.964844 28.675781 C 46.335938 28.433594 46.757812 28.316406 47.226562 28.316406 C 47.589844 28.316406 47.886719 28.378906 48.109375 28.5 C 48.332031 28.621094 48.507812 28.761719 48.628906 28.921875 C 48.757812 29.085938 48.855469 29.226562 48.925781 29.351562 L 49.011719 29.351562 L 49.011719 28.390625 L 50.125 28.390625 L 50.125 34.441406 C 50.125 34.949219 50.007812 35.367188 49.777344 35.691406 C 49.542969 36.015625 49.226562 36.257812 48.824219 36.414062 C 48.429688 36.574219 47.980469 36.652344 47.484375 36.652344 Z M 47.472656 33.265625 C 47.800781 33.265625 48.078125 33.1875 48.304688 33.035156 C 48.53125 32.875 48.703125 32.652344 48.820312 32.363281 C 48.941406 32.070312 49 31.71875 49 31.3125 C 49 30.914062 48.941406 30.5625 48.824219 30.261719 C 48.707031 29.957031 48.539062 29.722656 48.308594 29.550781 C 48.085938 29.378906 47.804688 29.292969 47.472656 29.292969 C 47.128906 29.292969 46.839844 29.382812 46.613281 29.5625 C 46.382812 29.742188 46.210938 29.980469 46.09375 30.289062 C 45.980469 30.59375 45.921875 30.933594 45.921875 31.3125 C 45.921875 31.699219 45.980469 32.039062 46.097656 32.332031 C 46.214844 32.625 46.386719 32.855469 46.617188 33.019531 C 46.847656 33.183594 47.132812 33.265625 47.472656 33.265625 Z M 54.269531 34.308594 L 54.269531 26.421875 L 57.058594 26.421875 C 57.664062 26.421875 58.167969 26.53125 58.566406 26.753906 C 58.96875 26.976562 59.265625 27.285156 59.464844 27.671875 C 59.664062 28.058594 59.761719 28.492188 59.761719 28.972656 C 59.761719 29.460938 59.664062 29.894531 59.460938 30.285156 C 59.261719 30.667969 58.960938 30.976562 58.558594 31.199219 C 58.160156 31.421875 57.660156 31.535156 57.054688 31.535156 L 55.136719 31.535156 L 55.136719 30.527344 L 56.945312 30.527344 C 57.332031 30.527344 57.644531 30.457031 57.878906 30.328125 C 58.121094 30.191406 58.296875 30.003906 58.410156 29.769531 C 58.519531 29.539062 58.578125 29.273438 58.578125 28.972656 C 58.578125 28.675781 58.519531 28.410156 58.410156 28.179688 C 58.296875 27.949219 58.117188 27.769531 57.878906 27.636719 C 57.636719 27.507812 57.324219 27.441406 56.929688 27.441406 L 55.449219 27.441406 L 55.449219 34.308594 Z M 62.546875 34.441406 C 62.175781 34.441406 61.835938 34.371094 61.539062 34.230469 C 61.238281 34.089844 61 33.886719 60.824219 33.621094 C 60.652344 33.351562 60.566406 33.027344 60.566406 32.636719 C 60.566406 32.300781 60.628906 32.027344 60.757812 31.8125 C 60.882812 31.597656 61.054688 31.425781 61.269531 31.300781 C 61.488281 31.175781 61.730469 31.082031 61.996094 31.015625 C 62.265625 30.949219 62.535156 30.902344 62.8125 30.871094 C 63.164062 30.828125 63.449219 30.796875 63.667969 30.769531 C 63.886719 30.738281 64.046875 30.695312 64.144531 30.632812 C 64.246094 30.574219 64.292969 30.472656 64.292969 30.332031 L 64.292969 30.304688 C 64.292969 29.96875 64.199219 29.710938 64.011719 29.527344 C 63.828125 29.339844 63.546875 29.246094 63.179688 29.246094 C 62.796875 29.246094 62.492188 29.332031 62.269531 29.503906 C 62.054688 29.675781 61.902344 29.863281 61.816406 30.070312 L 60.742188 29.824219 C 60.871094 29.464844 61.058594 29.175781 61.300781 28.953125 C 61.546875 28.730469 61.832031 28.570312 62.152344 28.46875 C 62.472656 28.367188 62.8125 28.316406 63.164062 28.316406 C 63.398438 28.316406 63.644531 28.34375 63.910156 28.402344 C 64.171875 28.453125 64.417969 28.554688 64.648438 28.699219 C 64.878906 28.847656 65.070312 29.058594 65.21875 29.328125 C 65.367188 29.597656 65.441406 29.949219 65.441406 30.378906 L 65.441406 34.308594 L 64.324219 34.308594 L 64.324219 33.5 L 64.277344 33.5 C 64.203125 33.648438 64.09375 33.796875 63.949219 33.941406 C 63.800781 34.082031 63.609375 34.203125 63.378906 34.296875 C 63.148438 34.390625 62.871094 34.441406 62.546875 34.441406 Z M 62.792969 33.515625 C 63.109375 33.515625 63.378906 33.453125 63.601562 33.328125 C 63.828125 33.199219 64 33.035156 64.117188 32.832031 C 64.238281 32.628906 64.296875 32.40625 64.296875 32.175781 L 64.296875 31.414062 C 64.257812 31.453125 64.175781 31.492188 64.0625 31.527344 C 63.949219 31.5625 63.816406 31.589844 63.667969 31.617188 C 63.519531 31.640625 63.378906 31.660156 63.238281 31.679688 C 63.097656 31.699219 62.980469 31.714844 62.886719 31.730469 C 62.664062 31.753906 62.460938 31.804688 62.277344 31.871094 C 62.097656 31.9375 61.953125 32.035156 61.84375 32.160156 C 61.738281 32.28125 61.683594 32.449219 61.683594 32.652344 C 61.683594 32.9375 61.789062 33.152344 61.996094 33.300781 C 62.207031 33.445312 62.472656 33.515625 62.792969 33.515625 Z M 66.796875 34.308594 L 66.796875 28.390625 L 67.902344 28.390625 L 67.902344 29.332031 L 67.960938 29.332031 C 68.070312 29.011719 68.253906 28.765625 68.527344 28.578125 C 68.800781 28.394531 69.109375 28.304688 69.449219 28.304688 C 69.523438 28.304688 69.605469 28.304688 69.703125 28.3125 C 69.800781 28.316406 69.878906 28.320312 69.933594 28.332031 L 69.933594 29.433594 C 69.890625 29.421875 69.808594 29.40625 69.691406 29.390625 C 69.574219 29.371094 69.457031 29.363281 69.339844 29.363281 C 69.070312 29.363281 68.828125 29.421875 68.617188 29.535156 C 68.410156 29.648438 68.242188 29.804688 68.121094 30.011719 C 68 30.210938 67.941406 30.4375 67.941406 30.695312 L 67.941406 34.308594 Z M 73.84375 28.390625 L 73.84375 29.316406 L 70.640625 29.316406 L 70.640625 28.390625 Z M 71.5 26.972656 L 72.640625 26.972656 L 72.640625 32.570312 C 72.640625 32.796875 72.675781 32.964844 72.742188 33.078125 C 72.804688 33.1875 72.890625 33.261719 72.996094 33.304688 C 73.105469 33.339844 73.21875 33.363281 73.34375 33.363281 C 73.4375 33.363281 73.515625 33.355469 73.582031 33.339844 C 73.652344 33.328125 73.707031 33.320312 73.742188 33.308594 L 73.953125 34.261719 C 73.882812 34.289062 73.792969 34.3125 73.667969 34.339844 C 73.546875 34.367188 73.394531 34.382812 73.210938 34.386719 C 72.910156 34.390625 72.628906 34.335938 72.371094 34.226562 C 72.109375 34.113281 71.902344 33.9375 71.742188 33.699219 C 71.582031 33.464844 71.5 33.167969 71.5 32.8125 Z M 76.085938 30.796875 L 76.085938 34.308594 L 74.945312 34.308594 L 74.945312 28.390625 L 76.039062 28.390625 L 76.039062 29.355469 L 76.113281 29.355469 C 76.246094 29.042969 76.460938 28.789062 76.746094 28.601562 C 77.035156 28.410156 77.402344 28.316406 77.839844 28.316406 C 78.242188 28.316406 78.589844 28.402344 78.890625 28.570312 C 79.191406 28.738281 79.421875 28.984375 79.589844 29.316406 C 79.753906 29.648438 79.835938 30.058594 79.835938 30.546875 L 79.835938 34.308594 L 78.695312 34.308594 L 78.695312 30.683594 C 78.695312 30.253906 78.585938 29.921875 78.363281 29.679688 C 78.140625 29.433594 77.839844 29.3125 77.453125 29.3125 C 77.1875 29.3125 76.953125 29.371094 76.746094 29.488281 C 76.542969 29.601562 76.382812 29.769531 76.261719 29.996094 C 76.144531 30.214844 76.085938 30.480469 76.085938 30.796875 Z M 83.734375 34.429688 C 83.15625 34.429688 82.65625 34.304688 82.242188 34.054688 C 81.828125 33.804688 81.507812 33.449219 81.277344 32.996094 C 81.054688 32.539062 80.945312 32.003906 80.945312 31.390625 C 80.945312 30.78125 81.054688 30.25 81.277344 29.785156 C 81.507812 29.324219 81.820312 28.964844 82.226562 28.703125 C 82.632812 28.445312 83.109375 28.316406 83.652344 28.316406 C 83.984375 28.316406 84.304688 28.371094 84.613281 28.480469 C 84.925781 28.589844 85.203125 28.765625 85.449219 29 C 85.699219 29.238281 85.890625 29.542969 86.035156 29.921875 C 86.175781 30.296875 86.246094 30.753906 86.246094 31.289062 L 86.246094 31.699219 L 81.589844 31.699219 L 81.589844 30.835938 L 85.132812 30.835938 C 85.132812 30.53125 85.070312 30.261719 84.945312 30.03125 C 84.824219 29.792969 84.652344 29.605469 84.429688 29.46875 C 84.214844 29.332031 83.953125 29.269531 83.660156 29.269531 C 83.339844 29.269531 83.058594 29.347656 82.820312 29.503906 C 82.582031 29.660156 82.402344 29.867188 82.273438 30.121094 C 82.144531 30.375 82.082031 30.648438 82.082031 30.941406 L 82.082031 31.617188 C 82.082031 32.011719 82.148438 32.347656 82.285156 32.625 C 82.425781 32.902344 82.621094 33.113281 82.871094 33.261719 C 83.121094 33.40625 83.410156 33.476562 83.746094 33.476562 C 83.960938 33.476562 84.15625 33.445312 84.335938 33.382812 C 84.515625 33.320312 84.667969 33.226562 84.796875 33.101562 C 84.929688 32.972656 85.027344 32.820312 85.097656 32.632812 L 86.175781 32.828125 C 86.089844 33.152344 85.933594 33.433594 85.710938 33.671875 C 85.488281 33.914062 85.210938 34.097656 84.875 34.230469 C 84.542969 34.363281 84.160156 34.429688 83.734375 34.429688 Z M 87.355469 34.308594 L 87.355469 28.390625 L 88.457031 28.390625 L 88.457031 29.332031 L 88.515625 29.332031 C 88.625 29.011719 88.8125 28.765625 89.082031 28.578125 C 89.355469 28.394531 89.664062 28.304688 90.003906 28.304688 C 90.078125 28.304688 90.160156 28.304688 90.257812 28.3125 C 90.355469 28.316406 90.433594 28.320312 90.488281 28.332031 L 90.488281 29.433594 C 90.445312 29.421875 90.363281 29.40625 90.246094 29.390625 C 90.128906 29.371094 90.011719 29.363281 89.894531 29.363281 C 89.625 29.363281 89.386719 29.421875 89.175781 29.535156 C 88.964844 29.648438 88.796875 29.804688 88.675781 30.011719 C 88.554688 30.210938 88.496094 30.4375 88.496094 30.695312 L 88.496094 34.308594 Z M 87.355469 34.308594 "/>
</g>
</svg>
