<?xml version="1.0" encoding="UTF-8"?>
<svg xmlns="http://www.w3.org/2000/svg" xmlns:xlink="http://www.w3.org/1999/xlink" width="118px" height="51px" viewBox="0 0 118 51" version="1.1">
<defs>
<clipPath id="clip1">
  <path d="M 9.460938 11.472656 L 37.425781 11.472656 L 37.425781 39.527344 L 9.460938 39.527344 Z M 9.460938 11.472656 "/>
</clipPath>
</defs>
<g id="surface1">
<path style=" stroke:none;fill-rule:nonzero;fill:rgb(10.196078%,9.803922%,9.803922%);fill-opacity:1;" d="M 5.300781 0 L 112.699219 0 C 115.625 0 118 2.382812 118 5.320312 L 118 45.679688 C 118 48.617188 115.625 51 112.699219 51 L 5.300781 51 C 2.375 51 0 48.617188 0 45.679688 L 0 5.320312 C 0 2.382812 2.375 0 5.300781 0 Z M 5.300781 0 "/>
<g clip-path="url(#clip1)" clip-rule="nonzero">
<path style=" stroke:none;fill-rule:evenodd;fill:rgb(100%,100%,100%);fill-opacity:1;" d="M 32.183594 11.472656 L 14.703125 11.472656 C 11.808594 11.472656 9.460938 13.828125 9.460938 16.734375 L 9.460938 34.265625 C 9.460938 37.171875 11.808594 39.527344 14.703125 39.527344 L 32.183594 39.527344 C 35.078125 39.527344 37.425781 37.171875 37.425781 34.265625 L 37.425781 16.734375 C 37.425781 13.828125 35.078125 11.472656 32.183594 11.472656 Z M 31.472656 26.582031 L 28.855469 26.582031 L 28.855469 36.296875 L 24.484375 36.296875 L 24.484375 26.582031 L 22.789062 26.582031 L 22.789062 23.308594 L 24.484375 23.308594 L 24.484375 21.222656 C 24.484375 18.488281 25.617188 16.867188 28.828125 16.867188 L 32.082031 16.867188 L 32.082031 20.125 L 30.1875 20.125 C 28.9375 20.125 28.855469 20.59375 28.855469 21.464844 L 28.851562 23.304688 L 31.828125 23.304688 L 31.46875 26.578125 Z M 31.472656 26.582031 "/>
</g>
<path style=" stroke:none;fill-rule:nonzero;fill:rgb(100%,100%,100%);fill-opacity:1;" d="M 46.40625 13.472656 L 47.816406 13.472656 L 51.128906 21.59375 L 51.246094 21.59375 L 54.558594 13.472656 L 55.96875 13.472656 L 55.96875 23.257812 L 54.863281 23.257812 L 54.863281 15.824219 L 54.769531 15.824219 L 51.722656 23.257812 L 50.652344 23.257812 L 47.605469 15.824219 L 47.511719 15.824219 L 47.511719 23.257812 L 46.40625 23.257812 Z M 60.136719 23.429688 C 59.671875 23.429688 59.253906 23.34375 58.875 23.167969 C 58.496094 22.988281 58.195312 22.730469 57.972656 22.398438 C 57.75 22.058594 57.640625 21.652344 57.640625 21.175781 C 57.640625 20.753906 57.722656 20.414062 57.886719 20.152344 C 58.054688 19.886719 58.273438 19.679688 58.550781 19.53125 C 58.828125 19.382812 59.132812 19.269531 59.464844 19.195312 C 59.800781 19.121094 60.140625 19.058594 60.480469 19.015625 C 60.921875 18.957031 61.285156 18.914062 61.558594 18.886719 C 61.839844 18.855469 62.042969 18.800781 62.171875 18.726562 C 62.300781 18.65625 62.367188 18.527344 62.367188 18.347656 L 62.367188 18.308594 C 62.367188 17.835938 62.238281 17.46875 61.980469 17.210938 C 61.726562 16.949219 61.339844 16.816406 60.820312 16.816406 C 60.285156 16.816406 59.863281 16.933594 59.558594 17.171875 C 59.253906 17.40625 59.039062 17.65625 58.917969 17.925781 L 57.851562 17.542969 C 58.039062 17.097656 58.292969 16.75 58.613281 16.503906 C 58.933594 16.25 59.28125 16.074219 59.660156 15.976562 C 60.042969 15.875 60.414062 15.824219 60.785156 15.824219 C 61.019531 15.824219 61.289062 15.851562 61.59375 15.910156 C 61.902344 15.964844 62.199219 16.078125 62.484375 16.25 C 62.773438 16.421875 63.011719 16.679688 63.203125 17.027344 C 63.394531 17.375 63.488281 17.839844 63.488281 18.421875 L 63.488281 23.257812 L 62.367188 23.257812 L 62.367188 22.265625 L 62.308594 22.265625 C 62.230469 22.421875 62.105469 22.59375 61.925781 22.773438 C 61.75 22.957031 61.511719 23.109375 61.21875 23.238281 C 60.921875 23.367188 60.5625 23.429688 60.136719 23.429688 Z M 60.308594 22.417969 C 60.753906 22.417969 61.128906 22.328125 61.433594 22.152344 C 61.738281 21.980469 61.972656 21.753906 62.128906 21.476562 C 62.285156 21.199219 62.367188 20.90625 62.367188 20.601562 L 62.367188 19.570312 C 62.316406 19.625 62.214844 19.679688 62.050781 19.726562 C 61.890625 19.773438 61.707031 19.8125 61.5 19.847656 C 61.292969 19.878906 61.089844 19.90625 60.894531 19.933594 C 60.699219 19.953125 60.542969 19.972656 60.421875 19.988281 C 60.128906 20.027344 59.855469 20.089844 59.601562 20.175781 C 59.351562 20.257812 59.148438 20.382812 58.992188 20.554688 C 58.839844 20.71875 58.765625 20.945312 58.765625 21.230469 C 58.765625 21.625 58.910156 21.917969 59.199219 22.121094 C 59.492188 22.316406 59.859375 22.417969 60.308594 22.417969 Z M 65.339844 23.257812 L 65.339844 15.917969 L 66.425781 15.917969 L 66.425781 17.027344 L 66.5 17.027344 C 66.636719 16.664062 66.875 16.371094 67.226562 16.144531 C 67.574219 15.917969 67.96875 15.804688 68.40625 15.804688 C 68.488281 15.804688 68.59375 15.804688 68.714844 15.808594 C 68.839844 15.8125 68.933594 15.816406 68.996094 15.824219 L 68.996094 16.96875 C 68.960938 16.960938 68.871094 16.945312 68.734375 16.925781 C 68.601562 16.90625 68.460938 16.894531 68.3125 16.894531 C 67.957031 16.894531 67.636719 16.96875 67.359375 17.117188 C 67.082031 17.265625 66.863281 17.46875 66.703125 17.730469 C 66.542969 17.988281 66.464844 18.28125 66.464844 18.613281 L 66.464844 23.257812 Z M 71.175781 20.582031 L 71.15625 19.1875 L 71.386719 19.1875 L 74.585938 15.917969 L 75.976562 15.917969 L 72.566406 19.378906 L 72.472656 19.378906 Z M 70.128906 23.257812 L 70.128906 13.472656 L 71.253906 13.472656 L 71.253906 23.257812 Z M 74.777344 23.257812 L 71.917969 19.625 L 72.71875 18.84375 L 76.207031 23.257812 Z M 79.988281 23.410156 C 79.285156 23.410156 78.675781 23.253906 78.164062 22.941406 C 77.65625 22.628906 77.265625 22.1875 76.988281 21.625 C 76.714844 21.058594 76.578125 20.398438 76.578125 19.644531 C 76.578125 18.894531 76.714844 18.230469 76.988281 17.65625 C 77.265625 17.082031 77.648438 16.632812 78.140625 16.3125 C 78.636719 15.984375 79.214844 15.824219 79.875 15.824219 C 80.253906 15.824219 80.632812 15.886719 81.003906 16.015625 C 81.375 16.140625 81.710938 16.347656 82.015625 16.636719 C 82.320312 16.917969 82.566406 17.296875 82.746094 17.761719 C 82.925781 18.230469 83.015625 18.808594 83.015625 19.492188 L 83.015625 19.96875 L 77.378906 19.96875 L 77.378906 18.996094 L 81.875 18.996094 C 81.875 18.582031 81.792969 18.210938 81.625 17.886719 C 81.464844 17.5625 81.234375 17.304688 80.929688 17.117188 C 80.632812 16.929688 80.28125 16.835938 79.875 16.835938 C 79.425781 16.835938 79.039062 16.949219 78.710938 17.171875 C 78.386719 17.390625 78.140625 17.675781 77.964844 18.03125 C 77.789062 18.382812 77.703125 18.761719 77.703125 19.167969 L 77.703125 19.816406 C 77.703125 20.371094 77.796875 20.839844 77.988281 21.226562 C 78.179688 21.609375 78.449219 21.902344 78.792969 22.101562 C 79.136719 22.300781 79.535156 22.398438 79.988281 22.398438 C 80.285156 22.398438 80.550781 22.355469 80.789062 22.273438 C 81.03125 22.1875 81.238281 22.058594 81.414062 21.890625 C 81.585938 21.71875 81.722656 21.503906 81.816406 21.25 L 82.902344 21.558594 C 82.789062 21.925781 82.597656 22.25 82.328125 22.53125 C 82.058594 22.808594 81.722656 23.023438 81.328125 23.179688 C 80.929688 23.335938 80.484375 23.410156 79.988281 23.410156 Z M 87.707031 15.917969 L 87.707031 16.875 L 83.917969 16.875 L 83.917969 15.917969 Z M 85.019531 14.160156 L 86.144531 14.160156 L 86.144531 21.15625 C 86.144531 21.472656 86.191406 21.710938 86.28125 21.871094 C 86.378906 22.027344 86.5 22.132812 86.644531 22.1875 C 86.792969 22.238281 86.953125 22.265625 87.117188 22.265625 C 87.242188 22.265625 87.34375 22.257812 87.421875 22.246094 C 87.5 22.230469 87.5625 22.214844 87.613281 22.207031 L 87.839844 23.21875 C 87.765625 23.25 87.65625 23.277344 87.519531 23.304688 C 87.386719 23.335938 87.210938 23.351562 87.003906 23.351562 C 86.683594 23.351562 86.375 23.285156 86.070312 23.148438 C 85.765625 23.011719 85.515625 22.800781 85.316406 22.523438 C 85.121094 22.242188 85.019531 21.886719 85.019531 21.460938 Z M 89.195312 23.257812 L 89.195312 15.917969 L 90.320312 15.917969 L 90.320312 23.257812 Z M 89.769531 14.695312 C 89.550781 14.695312 89.359375 14.621094 89.203125 14.472656 C 89.046875 14.320312 88.96875 14.140625 88.96875 13.933594 C 88.96875 13.722656 89.046875 13.542969 89.203125 13.390625 C 89.359375 13.242188 89.550781 13.167969 89.769531 13.167969 C 89.988281 13.167969 90.175781 13.242188 90.332031 13.390625 C 90.488281 13.542969 90.570312 13.722656 90.570312 13.933594 C 90.570312 14.140625 90.488281 14.320312 90.332031 14.472656 C 90.175781 14.621094 89.988281 14.695312 89.769531 14.695312 Z M 93.300781 18.84375 L 93.300781 23.257812 L 92.179688 23.257812 L 92.179688 15.917969 L 93.265625 15.917969 L 93.265625 17.066406 L 93.359375 17.066406 C 93.53125 16.691406 93.792969 16.394531 94.140625 16.167969 C 94.488281 15.9375 94.941406 15.824219 95.492188 15.824219 C 95.988281 15.824219 96.421875 15.925781 96.792969 16.128906 C 97.164062 16.328125 97.453125 16.636719 97.660156 17.046875 C 97.867188 17.453125 97.96875 17.96875 97.96875 18.59375 L 97.96875 23.257812 L 96.84375 23.257812 L 96.84375 18.671875 C 96.84375 18.09375 96.695312 17.644531 96.398438 17.324219 C 96.097656 17 95.691406 16.835938 95.167969 16.835938 C 94.808594 16.835938 94.488281 16.914062 94.207031 17.070312 C 93.925781 17.226562 93.707031 17.453125 93.546875 17.753906 C 93.382812 18.054688 93.300781 18.417969 93.300781 18.84375 Z M 102.773438 26.164062 C 102.230469 26.164062 101.765625 26.09375 101.375 25.953125 C 100.984375 25.816406 100.660156 25.632812 100.398438 25.40625 C 100.140625 25.183594 99.9375 24.945312 99.785156 24.691406 L 100.679688 24.058594 C 100.78125 24.195312 100.910156 24.347656 101.066406 24.519531 C 101.222656 24.695312 101.433594 24.84375 101.703125 24.972656 C 101.976562 25.101562 102.332031 25.167969 102.773438 25.167969 C 103.367188 25.167969 103.851562 25.027344 104.238281 24.738281 C 104.621094 24.453125 104.8125 24.003906 104.8125 23.390625 L 104.8125 21.902344 L 104.71875 21.902344 C 104.636719 22.035156 104.519531 22.199219 104.367188 22.398438 C 104.214844 22.59375 104 22.765625 103.71875 22.917969 C 103.4375 23.066406 103.0625 23.144531 102.585938 23.144531 C 101.992188 23.144531 101.464844 23.003906 100.992188 22.722656 C 100.527344 22.441406 100.15625 22.035156 99.882812 21.5 C 99.613281 20.964844 99.480469 20.316406 99.480469 19.550781 C 99.480469 18.796875 99.609375 18.144531 99.875 17.585938 C 100.136719 17.027344 100.503906 16.59375 100.976562 16.285156 C 101.445312 15.976562 101.988281 15.824219 102.605469 15.824219 C 103.078125 15.824219 103.457031 15.902344 103.738281 16.0625 C 104.019531 16.21875 104.234375 16.398438 104.386719 16.597656 C 104.539062 16.796875 104.65625 16.957031 104.738281 17.085938 L 104.851562 17.085938 L 104.851562 15.917969 L 105.9375 15.917969 L 105.9375 23.46875 C 105.9375 24.097656 105.792969 24.609375 105.507812 25.007812 C 105.226562 25.40625 104.84375 25.695312 104.367188 25.878906 C 103.890625 26.070312 103.359375 26.164062 102.773438 26.164062 Z M 102.738281 22.128906 C 103.1875 22.128906 103.570312 22.027344 103.878906 21.820312 C 104.191406 21.613281 104.425781 21.316406 104.589844 20.925781 C 104.75 20.539062 104.832031 20.074219 104.832031 19.53125 C 104.832031 19.003906 104.753906 18.535156 104.59375 18.132812 C 104.4375 17.726562 104.199219 17.410156 103.890625 17.179688 C 103.578125 16.949219 103.195312 16.835938 102.738281 16.835938 C 102.261719 16.835938 101.863281 16.957031 101.546875 17.199219 C 101.230469 17.441406 100.996094 17.765625 100.835938 18.175781 C 100.679688 18.582031 100.601562 19.035156 100.601562 19.53125 C 100.601562 20.039062 100.683594 20.492188 100.839844 20.882812 C 101.003906 21.273438 101.242188 21.578125 101.554688 21.800781 C 101.875 22.019531 102.265625 22.128906 102.738281 22.128906 Z M 46.40625 37.648438 L 46.40625 27.867188 L 49.703125 27.867188 C 50.464844 27.867188 51.09375 28.003906 51.578125 28.28125 C 52.066406 28.554688 52.429688 28.925781 52.664062 29.394531 C 52.898438 29.863281 53.015625 30.386719 53.015625 30.960938 C 53.015625 31.539062 52.898438 32.0625 52.664062 32.535156 C 52.433594 33.003906 52.074219 33.378906 51.585938 33.660156 C 51.101562 33.9375 50.480469 34.078125 49.71875 34.078125 L 47.359375 34.078125 L 47.359375 33.027344 L 49.683594 33.027344 C 50.207031 33.027344 50.628906 32.933594 50.945312 32.753906 C 51.261719 32.570312 51.492188 32.328125 51.636719 32.015625 C 51.78125 31.707031 51.855469 31.351562 51.855469 30.960938 C 51.855469 30.570312 51.78125 30.21875 51.636719 29.910156 C 51.492188 29.601562 51.261719 29.359375 50.941406 29.183594 C 50.617188 29.003906 50.195312 28.917969 49.664062 28.917969 L 47.585938 28.917969 L 47.585938 37.648438 Z M 56.71875 37.824219 C 56.253906 37.824219 55.832031 37.734375 55.457031 37.558594 C 55.078125 37.382812 54.777344 37.125 54.554688 36.789062 C 54.332031 36.453125 54.222656 36.046875 54.222656 35.566406 C 54.222656 35.148438 54.304688 34.804688 54.46875 34.542969 C 54.636719 34.28125 54.855469 34.074219 55.132812 33.921875 C 55.410156 33.773438 55.714844 33.664062 56.046875 33.589844 C 56.382812 33.511719 56.722656 33.453125 57.0625 33.40625 C 57.503906 33.351562 57.867188 33.308594 58.140625 33.277344 C 58.421875 33.246094 58.625 33.195312 58.75 33.121094 C 58.882812 33.046875 58.945312 32.921875 58.945312 32.738281 L 58.945312 32.699219 C 58.945312 32.230469 58.820312 31.863281 58.5625 31.601562 C 58.308594 31.339844 57.921875 31.210938 57.402344 31.210938 C 56.867188 31.210938 56.445312 31.328125 56.140625 31.5625 C 55.835938 31.800781 55.621094 32.050781 55.5 32.316406 L 54.433594 31.9375 C 54.621094 31.492188 54.875 31.144531 55.195312 30.894531 C 55.515625 30.644531 55.863281 30.46875 56.242188 30.367188 C 56.621094 30.265625 56.996094 30.214844 57.367188 30.214844 C 57.601562 30.214844 57.871094 30.246094 58.175781 30.300781 C 58.484375 30.355469 58.78125 30.46875 59.066406 30.640625 C 59.355469 30.8125 59.59375 31.074219 59.785156 31.421875 C 59.976562 31.765625 60.070312 32.230469 60.070312 32.816406 L 60.070312 37.648438 L 58.945312 37.648438 L 58.945312 36.65625 L 58.890625 36.65625 C 58.8125 36.816406 58.6875 36.984375 58.507812 37.167969 C 58.332031 37.347656 58.09375 37.503906 57.800781 37.632812 C 57.503906 37.757812 57.144531 37.824219 56.71875 37.824219 Z M 56.890625 36.808594 C 57.332031 36.808594 57.707031 36.722656 58.011719 36.546875 C 58.320312 36.371094 58.554688 36.144531 58.707031 35.867188 C 58.867188 35.589844 58.945312 35.300781 58.945312 34.992188 L 58.945312 33.960938 C 58.898438 34.019531 58.792969 34.070312 58.632812 34.121094 C 58.472656 34.164062 58.289062 34.203125 58.082031 34.238281 C 57.875 34.269531 57.671875 34.300781 57.476562 34.324219 C 57.28125 34.347656 57.125 34.367188 57.003906 34.382812 C 56.710938 34.421875 56.4375 34.484375 56.183594 34.570312 C 55.933594 34.652344 55.730469 34.777344 55.574219 34.945312 C 55.421875 35.113281 55.347656 35.335938 55.347656 35.625 C 55.347656 36.015625 55.492188 36.3125 55.78125 36.511719 C 56.070312 36.710938 56.441406 36.808594 56.890625 36.808594 Z M 61.921875 37.648438 L 61.921875 30.3125 L 63.007812 30.3125 L 63.007812 31.421875 L 63.082031 31.421875 C 63.214844 31.058594 63.457031 30.761719 63.808594 30.535156 C 64.15625 30.308594 64.550781 30.195312 64.988281 30.195312 C 65.070312 30.195312 65.175781 30.199219 65.296875 30.203125 C 65.421875 30.203125 65.515625 30.210938 65.578125 30.214844 L 65.578125 31.363281 C 65.539062 31.351562 65.453125 31.339844 65.316406 31.320312 C 65.183594 31.296875 65.042969 31.285156 64.894531 31.285156 C 64.539062 31.285156 64.21875 31.359375 63.941406 31.511719 C 63.664062 31.65625 63.445312 31.863281 63.285156 32.121094 C 63.125 32.378906 63.046875 32.675781 63.046875 33.007812 L 63.046875 37.648438 Z M 70.351562 30.3125 L 70.351562 31.265625 L 66.558594 31.265625 L 66.558594 30.3125 Z M 67.664062 28.554688 L 68.789062 28.554688 L 68.789062 35.546875 C 68.789062 35.867188 68.832031 36.105469 68.925781 36.265625 C 69.019531 36.421875 69.140625 36.527344 69.289062 36.582031 C 69.4375 36.632812 69.59375 36.65625 69.757812 36.65625 C 69.882812 36.65625 69.984375 36.648438 70.0625 36.636719 C 70.144531 36.621094 70.207031 36.609375 70.253906 36.597656 L 70.484375 37.613281 C 70.40625 37.640625 70.300781 37.667969 70.164062 37.699219 C 70.027344 37.730469 69.855469 37.746094 69.644531 37.746094 C 69.328125 37.746094 69.015625 37.675781 68.710938 37.539062 C 68.410156 37.402344 68.160156 37.195312 67.960938 36.914062 C 67.761719 36.632812 67.664062 36.28125 67.664062 35.855469 Z M 72.964844 33.234375 L 72.964844 37.648438 L 71.839844 37.648438 L 71.839844 30.3125 L 72.925781 30.3125 L 72.925781 31.457031 L 73.019531 31.457031 C 73.191406 31.085938 73.453125 30.785156 73.800781 30.558594 C 74.152344 30.332031 74.601562 30.214844 75.152344 30.214844 C 75.648438 30.214844 76.082031 30.316406 76.453125 30.523438 C 76.824219 30.722656 77.113281 31.027344 77.320312 31.4375 C 77.527344 31.847656 77.628906 32.363281 77.628906 32.988281 L 77.628906 37.648438 L 76.507812 37.648438 L 76.507812 33.0625 C 76.507812 32.488281 76.359375 32.039062 76.058594 31.714844 C 75.761719 31.390625 75.351562 31.230469 74.832031 31.230469 C 74.472656 31.230469 74.152344 31.308594 73.867188 31.464844 C 73.589844 31.621094 73.367188 31.847656 73.207031 32.144531 C 73.042969 32.445312 72.964844 32.808594 72.964844 33.234375 Z M 82.550781 37.804688 C 81.84375 37.804688 81.238281 37.648438 80.726562 37.335938 C 80.21875 37.019531 79.828125 36.582031 79.550781 36.015625 C 79.277344 35.449219 79.140625 34.789062 79.140625 34.039062 C 79.140625 33.285156 79.277344 32.625 79.550781 32.050781 C 79.828125 31.472656 80.210938 31.023438 80.703125 30.703125 C 81.199219 30.378906 81.777344 30.214844 82.4375 30.214844 C 82.816406 30.214844 83.195312 30.28125 83.566406 30.40625 C 83.9375 30.535156 84.273438 30.742188 84.578125 31.027344 C 84.882812 31.3125 85.128906 31.6875 85.308594 32.15625 C 85.488281 32.625 85.578125 33.199219 85.578125 33.886719 L 85.578125 34.363281 L 79.941406 34.363281 L 79.941406 33.386719 L 84.4375 33.386719 C 84.4375 32.972656 84.355469 32.605469 84.1875 32.28125 C 84.027344 31.957031 83.796875 31.699219 83.492188 31.511719 C 83.195312 31.324219 82.84375 31.230469 82.4375 31.230469 C 81.988281 31.230469 81.601562 31.339844 81.273438 31.5625 C 80.949219 31.785156 80.699219 32.070312 80.527344 32.421875 C 80.351562 32.777344 80.265625 33.15625 80.265625 33.5625 L 80.265625 34.210938 C 80.265625 34.765625 80.359375 35.234375 80.550781 35.621094 C 80.742188 36.003906 81.011719 36.292969 81.355469 36.492188 C 81.699219 36.691406 82.097656 36.789062 82.550781 36.789062 C 82.847656 36.789062 83.113281 36.75 83.351562 36.667969 C 83.59375 36.582031 83.800781 36.453125 83.972656 36.285156 C 84.148438 36.113281 84.285156 35.898438 84.378906 35.644531 L 85.464844 35.949219 C 85.351562 36.320312 85.160156 36.644531 84.890625 36.925781 C 84.617188 37.203125 84.285156 37.417969 83.890625 37.574219 C 83.492188 37.726562 83.046875 37.804688 82.550781 37.804688 Z M 87.089844 37.648438 L 87.089844 30.3125 L 88.175781 30.3125 L 88.175781 31.421875 L 88.25 31.421875 C 88.382812 31.058594 88.625 30.761719 88.972656 30.535156 C 89.324219 30.308594 89.71875 30.195312 90.15625 30.195312 C 90.238281 30.195312 90.339844 30.199219 90.464844 30.203125 C 90.589844 30.203125 90.683594 30.210938 90.746094 30.214844 L 90.746094 31.363281 C 90.707031 31.351562 90.621094 31.339844 90.484375 31.320312 C 90.351562 31.296875 90.210938 31.285156 90.058594 31.285156 C 89.703125 31.285156 89.386719 31.359375 89.109375 31.511719 C 88.832031 31.65625 88.613281 31.863281 88.449219 32.121094 C 88.292969 32.378906 88.210938 32.675781 88.210938 33.007812 L 88.210938 37.648438 Z M 87.089844 37.648438 "/>
</g>
</svg>
