<svg width="352" height="352" viewBox="0 0 352 352" fill="none" xmlns="http://www.w3.org/2000/svg">
<g style="mix-blend-mode:multiply" opacity="0.07">
<path d="M176 327.482C259.661 327.482 327.482 259.661 327.482 176C327.482 92.339 259.661 24.5184 176 24.5184C92.339 24.5184 24.5183 92.339 24.5183 176C24.5183 259.661 92.339 327.482 176 327.482Z" fill="#0B69FF"/>
</g>
<g style="mix-blend-mode:multiply" opacity="0.07">
<path d="M176 327.482C259.661 327.482 327.482 259.661 327.482 176C327.482 92.339 259.661 24.5184 176 24.5184C92.339 24.5184 24.5183 92.339 24.5183 176C24.5183 259.661 92.339 327.482 176 327.482Z" fill="#C5C5C5"/>
</g>
<path d="M283.462 98.6151L232.656 47.7063L333.472 46.965L283.462 98.6151Z" fill="#FFCB00"/>
<path d="M248.918 101.363L250.405 65.5515L333.473 46.965L248.918 101.363Z" fill="#F2A400"/>
<path d="M248.918 101.363L259.408 74.4256L271.625 86.7551L248.918 101.363Z" fill="#F5BD00"/>
<path d="M333.472 46.965L259.408 74.4256L283.463 98.6151L333.472 46.965Z" fill="#FFCB00"/>
<path d="M183.682 80.7281C179.14 77.4723 173.026 77.4723 168.483 80.7281L75.0205 147.758L75.2258 273.326L276.915 273.712L276.978 147.597L183.681 80.7281H183.682Z" fill="#225AEA"/>
<path d="M248.177 108.141H103.821C97.1355 108.141 91.7158 113.561 91.7158 120.246V237.79C91.7158 244.476 97.1355 249.895 103.821 249.895H248.177C254.863 249.895 260.282 244.476 260.282 237.79V120.246C260.282 113.561 254.863 108.141 248.177 108.141Z" fill="white"/>
<path d="M276.978 147.597L276.917 273.712H75.0225V147.76L175.989 228.633L276.978 147.597Z" fill="#0B69FF"/>
<path d="M162.446 167.044C164.463 162.158 167.158 158.493 170.532 156.051C173.905 153.608 177.22 152.386 180.478 152.386C182.726 152.386 184.665 152.951 186.294 154.072C187.923 155.197 189.261 156.651 190.308 158.434C191.355 160.219 192.15 162.274 192.693 164.6C193.235 166.926 193.507 169.253 193.507 171.579C193.507 174.217 193.235 176.582 192.693 178.674C193.081 178.674 193.429 178.695 193.741 178.733C194.05 178.773 194.398 178.792 194.788 178.792C196.417 178.792 197.772 178.501 198.859 177.92C199.944 177.338 200.817 176.544 201.476 175.534C202.134 174.527 202.62 173.364 202.93 172.045C203.24 170.728 203.396 169.331 203.396 167.858C203.396 163.437 202.715 159.696 201.36 156.632C200.003 153.57 198.199 151.107 195.951 149.246C193.701 147.386 191.142 146.048 188.274 145.232C185.404 144.419 182.458 144.01 179.434 144.01C174.548 144.01 170.205 144.864 166.405 146.568C162.604 148.275 159.405 150.583 156.809 153.491C154.209 156.399 152.213 159.755 150.818 163.553C149.423 167.354 148.724 171.309 148.724 175.418C148.724 180.537 149.459 184.842 150.934 188.331C152.407 191.821 154.365 194.653 156.809 196.824C159.251 198.996 162.004 200.547 165.067 201.476C168.129 202.408 171.212 202.871 174.316 202.871C178.659 202.871 183.04 202.214 187.461 200.895C191.882 199.578 195.991 197.987 199.792 196.126C200.8 195.738 201.653 195.544 202.351 195.544C203.747 195.544 204.871 196.01 205.724 196.939C206.576 197.871 207.003 198.916 207.003 200.081C207.003 201.788 205.8 203.396 203.398 204.909C200.993 206.422 198.065 207.741 194.615 208.864C191.163 209.987 187.577 210.881 183.855 211.54C180.132 212.198 176.952 212.529 174.316 212.529C168.422 212.529 163.266 211.462 158.845 209.33C154.424 207.197 150.759 204.386 147.851 200.897C144.943 197.407 142.771 193.471 141.338 189.09C139.901 184.709 139.186 180.269 139.186 175.77C139.186 170.11 140.194 164.76 142.21 159.717C144.227 154.677 146.998 150.277 150.527 146.513C154.055 142.752 158.244 139.787 163.091 137.615C167.937 135.444 173.153 134.357 178.737 134.357C183.39 134.357 187.771 135.075 191.882 136.508C195.991 137.945 199.598 140.057 202.7 142.849C205.8 145.641 208.263 149.112 210.086 153.261C211.907 157.41 212.819 162.199 212.819 167.628C212.819 170.032 212.508 172.476 211.888 174.957C211.266 177.439 210.259 179.649 208.864 181.588C207.469 183.527 205.644 185.117 203.396 186.357C201.146 187.598 198.393 188.217 195.138 188.217C194.128 188.217 192.965 188.158 191.648 188.043C190.329 187.927 189.282 187.636 188.506 187.17C186.877 189.187 184.939 190.835 182.69 192.114C180.44 193.393 178.153 194.033 175.827 194.033C173.966 194.033 172.144 193.568 170.359 192.638C168.574 191.707 167.004 190.428 165.647 188.799C164.29 187.17 163.205 185.271 162.389 183.099C161.576 180.928 161.167 178.562 161.167 176.004C161.167 172.98 161.593 169.994 162.446 167.046V167.044ZM173.846 165.649C172.683 167.044 171.849 168.656 171.345 170.477C170.84 172.299 170.589 174.025 170.589 175.652C170.589 176.507 170.686 177.437 170.88 178.444C171.072 179.453 171.383 180.383 171.811 181.236C172.237 182.092 172.818 182.806 173.556 183.388C174.291 183.969 175.202 184.26 176.289 184.26C177.684 184.26 178.866 183.872 179.837 183.097C180.807 182.323 181.601 181.314 182.223 180.073C182.842 178.834 183.287 177.437 183.561 175.886C183.833 174.335 183.967 172.786 183.967 171.233C183.967 170.148 183.909 169.044 183.793 167.918C183.677 166.795 183.462 165.786 183.152 164.895C182.842 164.003 182.434 163.266 181.93 162.684C181.424 162.102 180.786 161.812 180.01 161.812C178.923 161.812 177.781 162.277 176.58 163.207C175.377 164.138 174.466 164.952 173.846 165.649Z" fill="#FFCB00"/>
<path d="M167.491 207.195L75.4805 273.712H276.917L183.622 207.195C178.807 203.715 172.305 203.715 167.491 207.195Z" fill="#225AEA"/>
<path d="M232.607 81.9863C230.208 81.9863 228.3 81.5815 226.915 80.7775L227.948 79.5991C231.05 81.4009 237.735 80.1408 240.05 79.5022L240.62 80.8726C240.527 80.8973 238.32 81.5017 235.561 81.8077C234.506 81.9255 233.519 81.9844 232.605 81.9844L232.607 81.9863Z" fill="#F2A400"/>
<path d="M54.8755 249.935C52.0682 249.935 49.3351 249.825 46.7502 249.61L46.9327 248.169C49.4567 248.38 52.1309 248.487 54.8774 248.487C57.6238 248.487 60.3702 248.386 63.2535 248.185L63.4056 249.627C60.4729 249.831 57.6029 249.935 54.8774 249.935H54.8755ZM30.5301 246.356C25.1683 244.494 20.5403 241.878 16.777 238.583L18.0808 237.598C21.6731 240.744 26.0978 243.243 31.2276 245.026L30.5282 246.356H30.5301ZM8.11193 226.924C6.29111 222.959 5.09751 218.493 4.56152 213.644L6.33483 213.515C6.85561 218.234 8.015 222.575 9.7788 226.418L8.11193 226.926V226.924ZM98.7386 218.014L98.4554 216.585C103.817 215.883 108.842 214.085 112.988 211.382L114.102 212.511C109.717 215.37 104.404 217.273 98.7386 218.014ZM82.0091 216.944C76.6949 215.571 71.8026 213.291 67.4635 210.164L68.6438 209.081C72.7948 212.072 77.4723 214.252 82.5489 215.564L82.011 216.944H82.0091ZM124.15 201.585L122.514 201.014C124.51 197.226 125.648 192.92 125.899 188.212L127.676 188.274C127.416 193.157 126.23 197.635 124.148 201.585H124.15ZM6.43366 200.22L4.66226 200.087C5.15833 195.691 6.07444 191.201 7.38589 186.739L9.11738 187.075C7.82684 191.469 6.92403 195.892 6.43556 200.22H6.43366ZM57.1753 199.424C54.6645 195.59 52.7696 191.287 51.5455 186.63L53.2865 186.328C54.4763 190.852 56.3124 195.029 58.7471 198.743L57.1772 199.424H57.1753ZM124.529 175.031C123.396 170.441 121.653 166.234 119.347 162.53L120.936 161.876C123.314 165.697 125.11 170.028 126.273 174.746L124.529 175.031ZM14.0933 174.394L12.4511 173.837C13.5155 171.758 14.6045 169.937 15.686 168.424C17.2217 166.276 19.0293 164.174 21.0553 162.178L22.4276 163.1C20.4623 165.035 18.7118 167.073 17.2255 169.152C16.1821 170.61 15.1291 172.374 14.0952 174.394H14.0933ZM49.7323 173.166C49.6924 172.123 49.6715 171.066 49.6715 170.024C49.6715 166.577 49.892 163.089 50.3291 159.654L52.0986 159.803C51.6691 163.188 51.4505 166.626 51.4505 170.024C51.4505 171.051 51.4695 172.092 51.5094 173.121L49.7304 173.166H49.7323ZM34.2991 154.063L33.248 152.894C37.6917 150.25 42.5593 147.975 47.7195 146.135L48.4342 147.46C43.3937 149.258 38.6382 151.48 34.2991 154.061V154.063ZM109.703 152.042C105.769 149.098 101.166 146.787 96.0188 145.171L96.6593 143.822C102.015 145.504 106.809 147.912 110.908 150.978L109.703 152.044V152.042ZM54.8565 146.663L53.125 146.327C54.3946 142.001 56.0349 137.653 57.9982 133.403L59.6651 133.912C57.7283 138.107 56.109 142.397 54.8565 146.665V146.663ZM63.9739 143.472L63.628 142.053C68.0945 141.334 72.5572 140.969 76.8926 140.969H76.8983C78.0311 140.969 79.1696 140.994 80.2833 141.043L80.1864 142.488C79.1049 142.44 77.9988 142.416 76.9002 142.416H76.8945C72.6731 142.416 68.3264 142.771 63.9739 143.47V143.472ZM66.3364 121.714L64.755 121.05C67.2715 117.084 70.1092 113.165 73.1882 109.401L74.6707 110.203C71.6278 113.923 68.8243 117.796 66.3364 121.716V121.714ZM84.5161 99.5027L83.1552 98.5714C87.5077 94.3653 90.5544 92.0427 90.9232 91.7652C92.0864 90.7084 93.2743 89.6688 94.4565 88.6709L95.7375 89.6745C94.561 90.6666 93.3788 91.7044 92.2213 92.7554L92.1605 92.8067C92.1301 92.8295 88.9845 95.1863 84.518 99.5027H84.5161ZM107.847 80.6977L106.742 79.563C111.209 76.6873 115.86 74.1519 120.566 72.0269L121.43 73.2928C116.808 75.3816 112.239 77.8733 107.847 80.6996V80.6977ZM215.235 76.3338C210.358 74.1633 205.363 72.2531 200.391 70.6566L201.045 69.3109C206.085 70.9303 211.147 72.8651 216.088 75.0642L215.235 76.3338ZM136.37 67.933L135.809 66.5588C141.087 65.1352 146.555 64.1298 152.065 63.5729L152.284 65.0098C146.89 65.5552 141.536 66.5379 136.368 67.933H136.37ZM184.773 66.6405C179.345 65.5951 173.907 64.9223 168.606 64.641L168.722 63.1965C174.122 63.4835 179.661 64.1678 185.184 65.2321L184.773 66.6405Z" fill="#F2A400"/>
</svg>
