<svg width="27" height="27" viewBox="0 0 27 27" fill="none" xmlns="http://www.w3.org/2000/svg">
<path opacity="0.4" d="M13.8782 24.8284C19.8762 24.8284 24.7385 19.9661 24.7385 13.9681C24.7385 7.97003 19.8762 3.10767 13.8782 3.10767C7.88012 3.10767 3.01776 7.97003 3.01776 13.9681C3.01776 19.9661 7.88012 24.8284 13.8782 24.8284Z" fill="#0B69FF"/>
<path d="M18.2223 13.1535H14.6927V9.62386C14.6927 9.17858 14.3234 8.80933 13.8782 8.80933C13.4329 8.80933 13.0636 9.17858 13.0636 9.62386V13.1535H9.53401C9.08874 13.1535 8.71948 13.5227 8.71948 13.968C8.71948 14.4133 9.08874 14.7825 9.53401 14.7825H13.0636V18.3122C13.0636 18.7574 13.4329 19.1267 13.8782 19.1267C14.3234 19.1267 14.6927 18.7574 14.6927 18.3122V14.7825H18.2223C18.6676 14.7825 19.0369 14.4133 19.0369 13.968C19.0369 13.5227 18.6676 13.1535 18.2223 13.1535Z" fill="#0B69FF"/>
</svg>
