<svg width="29" height="28" viewBox="0 0 29 28" fill="none" xmlns="http://www.w3.org/2000/svg">
<path opacity="0.4" d="M9.81846 25.2861H19.3614C23.5116 25.2861 25.9857 22.812 25.9857 18.6619V9.11893C25.9857 4.96882 23.5116 2.49471 19.3614 2.49471H9.81846C5.66834 2.49471 3.19424 4.96882 3.19424 9.11893V18.6619C3.19424 22.812 5.66834 25.2861 9.81846 25.2861Z" fill="white"/>
<path d="M10.2517 19.3346H11.9505C13.1933 19.3346 14.1624 18.3655 14.1624 17.1227V15.4239C14.1624 14.1811 13.1933 13.212 11.9505 13.212H9.77285C9.86406 11.1483 10.3429 10.8405 11.7225 10.031C12.1329 9.7916 12.2584 9.26717 12.0189 8.85672C11.8593 8.58308 11.5743 8.4348 11.2778 8.4348C11.1296 8.4348 10.9814 8.46905 10.8446 8.54886C8.80373 9.75741 8.03984 10.5441 8.03984 14.0558V17.0999C8.03984 18.3427 9.03176 19.3346 10.2517 19.3346Z" fill="white"/>
<path d="M17.2408 19.3346H18.9396C20.1823 19.3346 21.1515 18.3655 21.1515 17.1227V15.4239C21.1515 14.1811 20.1823 13.212 18.9396 13.212H16.7619C16.8531 11.1483 17.332 10.8405 18.7116 10.031C19.122 9.7916 19.2474 9.26717 19.008 8.85672C18.8484 8.58308 18.5633 8.4348 18.2669 8.4348C18.1187 8.4348 17.9705 8.46905 17.8337 8.54886C15.7928 9.75741 15.0289 10.5441 15.0289 14.0558V17.0999C15.0403 18.3427 16.0322 19.3346 17.2408 19.3346Z" fill="white"/>
</svg>
