<svg width="27" height="27" viewBox="0 0 27 27" fill="none" xmlns="http://www.w3.org/2000/svg">
<path opacity="0.4" d="M13.4992 23.8407C19.2968 23.8407 23.9966 18.9668 23.9966 12.9545C23.9966 6.94227 19.2968 2.06836 13.4992 2.06836C7.70167 2.06836 3.00183 6.94227 3.00183 12.9545C3.00183 18.9668 7.70167 23.8407 13.4992 23.8407Z" fill="#26A7F3"/>
<path d="M15.8716 13.0635L14.2865 12.4865V8.79612H14.6644C15.5147 8.79612 16.2075 9.56904 16.2075 10.5161C16.2075 10.9625 16.5644 11.3326 16.9948 11.3326C17.4252 11.3326 17.7821 10.9625 17.7821 10.5161C17.7821 8.66549 16.386 7.16319 14.6644 7.16319H14.2865V6.5318C14.2865 6.08546 13.9296 5.71533 13.4992 5.71533C13.0688 5.71533 12.7119 6.08546 12.7119 6.5318V7.16319H12.0296C10.476 7.16319 9.20578 8.52397 9.20578 10.1896C9.20578 12.1382 10.2975 12.7587 11.1268 13.0635L12.7119 13.6405V17.32H12.334C11.4837 17.32 10.7909 16.5471 10.7909 15.6C10.7909 15.1536 10.434 14.7835 10.0036 14.7835C9.57319 14.7835 9.21628 15.1536 9.21628 15.6C9.21628 17.4506 10.6124 18.9529 12.334 18.9529H12.7119V19.5952C12.7119 20.0415 13.0688 20.4117 13.4992 20.4117C13.9296 20.4117 14.2865 20.0415 14.2865 19.5952V18.9638H14.9688C16.5225 18.9638 17.7926 17.603 17.7926 15.9375C17.7821 13.9779 16.6904 13.3574 15.8716 13.0635ZM11.6517 11.5286C11.1163 11.3326 10.7909 11.1475 10.7909 10.2004C10.7909 9.42752 11.3472 8.80701 12.0401 8.80701H12.7224V11.9205L11.6517 11.5286ZM14.9688 17.3309H14.2865V14.2174L15.3468 14.5985C15.8821 14.7944 16.2075 14.9795 16.2075 15.9266C16.2075 16.6995 15.6512 17.3309 14.9688 17.3309Z" fill="#26A7F3"/>
</svg>
