<svg width="265" height="25" viewBox="0 0 265 25" fill="none" xmlns="http://www.w3.org/2000/svg">
<path opacity="0.9" d="M16.796 19L22.308 0.799999H24.882L19.292 19H16.796ZM5.746 19L0.234 0.799999H2.834L8.242 19H5.746ZM6.032 19L11.284 0.799999H13.702L8.476 19H6.032ZM16.562 19L11.44 0.799999H13.858L19.084 19H16.562ZM26.2287 19L26.2807 6H28.7247L28.6987 19H26.2287ZM27.4767 3.244C27.0781 3.244 26.7314 3.09667 26.4367 2.802C26.1421 2.49 25.9947 2.13467 25.9947 1.736C25.9947 1.32 26.1421 0.973332 26.4367 0.695999C26.7314 0.401333 27.0781 0.254 27.4767 0.254C27.8927 0.254 28.2394 0.401333 28.5167 0.695999C28.8114 0.973332 28.9587 1.32 28.9587 1.736C28.9587 2.13467 28.8114 2.49 28.5167 2.802C28.2394 3.09667 27.8927 3.244 27.4767 3.244ZM36.5568 19.312C35.2568 19.312 34.2515 18.9827 33.5408 18.324C32.8301 17.648 32.4748 16.686 32.4748 15.438V1.944H34.9448V15.074C34.9448 15.7153 35.1008 16.2093 35.4128 16.556C35.7421 16.8853 36.2101 17.05 36.8168 17.05C36.9901 17.05 37.1808 17.0153 37.3888 16.946C37.5968 16.8767 37.8481 16.738 38.1428 16.53L39.0788 18.454C38.6281 18.7487 38.1948 18.9653 37.7788 19.104C37.3801 19.2427 36.9728 19.312 36.5568 19.312ZM30.2648 8.132V6H38.6368V8.132H30.2648ZM40.7633 19L40.7373 0.513999H43.2073V19H40.7633ZM49.7593 19V12.344L52.2033 11.564V19H49.7593ZM49.7593 12.344C49.7593 11.1653 49.6207 10.2727 49.3433 9.666C49.066 9.042 48.6847 8.60867 48.1993 8.366C47.7313 8.12333 47.194 7.99333 46.5873 7.976C45.5127 7.976 44.6807 8.34867 44.0913 9.094C43.502 9.83933 43.2073 10.888 43.2073 12.24H42.1673C42.1673 10.8707 42.3667 9.70067 42.7653 8.73C43.164 7.742 43.736 6.988 44.4813 6.468C45.244 5.948 46.1453 5.688 47.1853 5.688C48.7627 5.688 49.9933 6.17333 50.8773 7.144C51.7787 8.09733 52.2207 9.57067 52.2033 11.564L49.7593 12.344ZM60.4075 19.312C59.1075 19.312 57.9635 19.026 56.9755 18.454C55.9875 17.8647 55.2075 17.0587 54.6355 16.036C54.0809 15.0133 53.8035 13.8347 53.8035 12.5C53.8035 11.1653 54.0809 9.98667 54.6355 8.964C55.1902 7.94133 55.9615 7.144 56.9495 6.572C57.9375 5.98267 59.0729 5.688 60.3555 5.688C61.6382 5.688 62.7735 5.98267 63.7615 6.572C64.7495 7.144 65.5209 7.94133 66.0755 8.964C66.6302 9.98667 66.9075 11.1653 66.9075 12.5C66.9075 13.8347 66.6302 15.0133 66.0755 16.036C65.5209 17.0587 64.7495 17.8647 63.7615 18.454C62.7909 19.026 61.6729 19.312 60.4075 19.312ZM60.4075 17.05C61.1875 17.05 61.8809 16.8593 62.4875 16.478C63.0942 16.0793 63.5622 15.542 63.8915 14.866C64.2382 14.19 64.4115 13.4013 64.4115 12.5C64.4115 11.5987 64.2382 10.81 63.8915 10.134C63.5622 9.458 63.0855 8.92933 62.4615 8.548C61.8375 8.14933 61.1355 7.95 60.3555 7.95C59.5582 7.95 58.8562 8.14933 58.2495 8.548C57.6429 8.92933 57.1662 9.458 56.8195 10.134C56.4729 10.81 56.2995 11.5987 56.2995 12.5C56.2995 13.4013 56.4729 14.19 56.8195 14.866C57.1662 15.542 57.6515 16.0793 58.2755 16.478C58.8995 16.8593 59.6102 17.05 60.4075 17.05ZM77.6736 19L77.5176 16.608V6H79.9616V19H77.6736ZM68.5216 13.436V6H70.9916V12.656L68.5216 13.436ZM70.9916 12.656C70.9916 13.8173 71.1216 14.71 71.3816 15.334C71.6589 15.958 72.0402 16.3913 72.5256 16.634C73.0109 16.8767 73.5569 17.0067 74.1636 17.024C75.2209 17.024 76.0442 16.6513 76.6336 15.906C77.2229 15.1607 77.5176 14.112 77.5176 12.76H78.5836C78.5836 14.1293 78.3842 15.308 77.9856 16.296C77.5869 17.2667 77.0062 18.012 76.2436 18.532C75.4982 19.052 74.5969 19.312 73.5396 19.312C71.9796 19.312 70.7489 18.8267 69.8476 17.856C68.9636 16.8853 68.5216 15.412 68.5216 13.436L70.9916 12.656ZM87.6458 19.312C86.3458 19.312 85.3405 18.9827 84.6298 18.324C83.9191 17.648 83.5638 16.686 83.5638 15.438V1.944H86.0338V15.074C86.0338 15.7153 86.1898 16.2093 86.5018 16.556C86.8311 16.8853 87.2991 17.05 87.9058 17.05C88.0791 17.05 88.2698 17.0153 88.4778 16.946C88.6858 16.8767 88.9371 16.738 89.2318 16.53L90.1678 18.454C89.7171 18.7487 89.2838 18.9653 88.8678 19.104C88.4691 19.2427 88.0618 19.312 87.6458 19.312ZM81.3538 8.132V6H89.7258V8.132H81.3538ZM112.474 19L117.986 0.799999H120.56L114.97 19H112.474ZM101.424 19L95.912 0.799999H98.512L103.92 19H101.424ZM101.71 19L106.962 0.799999H109.38L104.154 19H101.71ZM112.24 19L107.118 0.799999H109.536L114.762 19H112.24ZM121.907 19L121.959 6H124.403L124.377 19H121.907ZM123.155 3.244C122.756 3.244 122.409 3.09667 122.115 2.802C121.82 2.49 121.673 2.13467 121.673 1.736C121.673 1.32 121.82 0.973332 122.115 0.695999C122.409 0.401333 122.756 0.254 123.155 0.254C123.571 0.254 123.917 0.401333 124.195 0.695999C124.489 0.973332 124.637 1.32 124.637 1.736C124.637 2.13467 124.489 2.49 124.195 2.802C123.917 3.09667 123.571 3.244 123.155 3.244ZM127.217 19V6H129.531L129.687 8.392V19H127.217ZM136.213 19V12.344L138.683 11.564V19H136.213ZM136.213 12.344C136.213 11.1653 136.074 10.2727 135.797 9.666C135.537 9.042 135.164 8.60867 134.679 8.366C134.211 8.12333 133.665 7.99333 133.041 7.976C131.983 7.976 131.16 8.34867 130.571 9.094C129.981 9.83933 129.687 10.888 129.687 12.24H128.621C128.621 10.8707 128.82 9.70067 129.219 8.73C129.617 7.742 130.189 6.988 130.935 6.468C131.697 5.948 132.607 5.688 133.665 5.688C135.225 5.688 136.447 6.17333 137.331 7.144C138.232 8.09733 138.683 9.57067 138.683 11.564L136.213 12.344ZM141.011 19V6H143.325L143.481 8.392V19H141.011ZM150.007 19V12.344L152.477 11.564V19H150.007ZM150.007 12.344C150.007 11.1653 149.868 10.2727 149.591 9.666C149.331 9.042 148.958 8.60867 148.473 8.366C148.005 8.12333 147.459 7.99333 146.835 7.976C145.778 7.976 144.954 8.34867 144.365 9.094C143.776 9.83933 143.481 10.888 143.481 12.24H142.415C142.415 10.8707 142.614 9.70067 143.013 8.73C143.412 7.742 143.984 6.988 144.729 6.468C145.492 5.948 146.402 5.688 147.459 5.688C149.019 5.688 150.241 6.17333 151.125 7.144C152.026 8.09733 152.477 9.57067 152.477 11.564L150.007 12.344ZM154.961 19L155.013 6H157.457L157.431 19H154.961ZM156.209 3.244C155.811 3.244 155.464 3.09667 155.169 2.802C154.875 2.49 154.727 2.13467 154.727 1.736C154.727 1.32 154.875 0.973332 155.169 0.695999C155.464 0.401333 155.811 0.254 156.209 0.254C156.625 0.254 156.972 0.401333 157.249 0.695999C157.544 0.973332 157.691 1.32 157.691 1.736C157.691 2.13467 157.544 2.49 157.249 2.802C156.972 3.09667 156.625 3.244 156.209 3.244ZM160.271 19V6H162.585L162.741 8.392V19H160.271ZM169.267 19V12.344L171.737 11.564V19H169.267ZM169.267 12.344C169.267 11.1653 169.129 10.2727 168.851 9.666C168.591 9.042 168.219 8.60867 167.733 8.366C167.265 8.12333 166.719 7.99333 166.095 7.976C165.038 7.976 164.215 8.34867 163.625 9.094C163.036 9.83933 162.741 10.888 162.741 12.24H161.675C161.675 10.8707 161.875 9.70067 162.273 8.73C162.672 7.742 163.244 6.988 163.989 6.468C164.752 5.948 165.662 5.688 166.719 5.688C168.279 5.688 169.501 6.17333 170.385 7.144C171.287 8.09733 171.737 9.57067 171.737 11.564L169.267 12.344ZM179.448 24.538C178.581 24.538 177.792 24.4513 177.082 24.278C176.371 24.122 175.773 23.94 175.288 23.732C174.802 23.524 174.438 23.342 174.196 23.186L175.132 21.184C175.357 21.3227 175.678 21.4787 176.094 21.652C176.51 21.8427 176.995 21.9987 177.55 22.12C178.104 22.2587 178.72 22.328 179.396 22.328C180.193 22.328 180.904 22.1633 181.528 21.834C182.152 21.522 182.637 21.028 182.984 20.352C183.348 19.676 183.53 18.8093 183.53 17.752V6H186V17.7C186 19.1907 185.714 20.4387 185.142 21.444C184.587 22.4667 183.816 23.238 182.828 23.758C181.857 24.278 180.73 24.538 179.448 24.538ZM179.214 18.818C178.035 18.818 177.004 18.5493 176.12 18.012C175.253 17.4573 174.568 16.6947 174.066 15.724C173.58 14.736 173.338 13.6007 173.338 12.318C173.338 10.9833 173.58 9.822 174.066 8.834C174.568 7.846 175.253 7.07467 176.12 6.52C177.004 5.96533 178.035 5.688 179.214 5.688C180.288 5.688 181.224 5.96533 182.022 6.52C182.836 7.07467 183.46 7.85467 183.894 8.86C184.344 9.848 184.57 11.0093 184.57 12.344C184.57 13.6267 184.344 14.762 183.894 15.75C183.46 16.7207 182.836 17.4747 182.022 18.012C181.224 18.5493 180.288 18.818 179.214 18.818ZM179.838 16.738C180.566 16.738 181.198 16.5473 181.736 16.166C182.273 15.7673 182.698 15.2387 183.01 14.58C183.322 13.904 183.478 13.1327 183.478 12.266C183.478 11.3993 183.322 10.6367 183.01 9.978C182.698 9.31933 182.264 8.808 181.71 8.444C181.172 8.06267 180.54 7.872 179.812 7.872C179.049 7.872 178.373 8.06267 177.784 8.444C177.212 8.808 176.761 9.31933 176.432 9.978C176.102 10.6367 175.938 11.3993 175.938 12.266C175.938 13.1327 176.102 13.904 176.432 14.58C176.778 15.2387 177.238 15.7673 177.81 16.166C178.399 16.5473 179.075 16.738 179.838 16.738ZM201.595 19V0.799999H204.143V19H201.595ZM189.245 19V0.799999H191.793V19H189.245ZM191.377 10.81V8.47H202.401V10.81H191.377ZM216.232 19L216.076 16.608V6H218.52V19H216.232ZM207.08 13.436V6H209.55V12.656L207.08 13.436ZM209.55 12.656C209.55 13.8173 209.68 14.71 209.94 15.334C210.218 15.958 210.599 16.3913 211.084 16.634C211.57 16.8767 212.116 17.0067 212.722 17.024C213.78 17.024 214.603 16.6513 215.192 15.906C215.782 15.1607 216.076 14.112 216.076 12.76H217.142C217.142 14.1293 216.943 15.308 216.544 16.296C216.146 17.2667 215.565 18.012 214.802 18.532C214.057 19.052 213.156 19.312 212.098 19.312C210.538 19.312 209.308 18.8267 208.406 17.856C207.522 16.8853 207.08 15.412 207.08 13.436L209.55 12.656ZM221.186 19V6H223.5L223.656 8.392V19H221.186ZM230.182 19V12.344L232.652 11.564V19H230.182ZM230.182 12.344C230.182 11.1653 230.044 10.2727 229.766 9.666C229.506 9.042 229.134 8.60867 228.648 8.366C228.18 8.12333 227.634 7.99333 227.01 7.976C225.953 7.976 225.13 8.34867 224.54 9.094C223.951 9.83933 223.656 10.888 223.656 12.24H222.59C222.59 10.8707 222.79 9.70067 223.188 8.73C223.587 7.742 224.159 6.988 224.904 6.468C225.667 5.948 226.577 5.688 227.634 5.688C229.194 5.688 230.416 6.17333 231.3 7.144C232.202 8.09733 232.652 9.57067 232.652 11.564L230.182 12.344ZM239.999 19.312C238.699 19.312 237.693 18.9827 236.983 18.324C236.272 17.648 235.917 16.686 235.917 15.438V1.944H238.387V15.074C238.387 15.7153 238.543 16.2093 238.855 16.556C239.184 16.8853 239.652 17.05 240.259 17.05C240.432 17.05 240.623 17.0153 240.831 16.946C241.039 16.8767 241.29 16.738 241.585 16.53L242.521 18.454C242.07 18.7487 241.637 18.9653 241.221 19.104C240.822 19.2427 240.415 19.312 239.999 19.312ZM233.707 8.132V6H242.079V8.132H233.707ZM249.824 19.312C248.558 19.312 247.44 19.026 246.47 18.454C245.499 17.8647 244.736 17.0587 244.182 16.036C243.627 15.0133 243.35 13.8347 243.35 12.5C243.35 11.1653 243.627 9.98667 244.182 8.964C244.736 7.94133 245.499 7.144 246.47 6.572C247.458 5.98267 248.584 5.688 249.85 5.688C251.028 5.688 252.068 5.99133 252.97 6.598C253.888 7.18733 254.599 8.03667 255.102 9.146C255.622 10.238 255.882 11.5293 255.882 13.02H253.412C253.429 11.9107 253.29 10.9747 252.996 10.212C252.718 9.44933 252.302 8.87733 251.748 8.496C251.21 8.09733 250.56 7.898 249.798 7.898C248.983 7.898 248.281 8.08867 247.692 8.47C247.102 8.834 246.643 9.36267 246.314 10.056C246.002 10.732 245.846 11.564 245.846 12.552C245.846 13.4707 246.028 14.268 246.392 14.944C246.756 15.6027 247.25 16.1227 247.874 16.504C248.498 16.868 249.208 17.05 250.006 17.05C250.855 17.05 251.557 16.8507 252.112 16.452C252.684 16.0533 253.134 15.542 253.464 14.918L255.674 15.932C255.327 16.608 254.876 17.206 254.322 17.726C253.767 18.2287 253.108 18.6187 252.346 18.896C251.6 19.1733 250.76 19.312 249.824 19.312ZM244.962 13.02L244.988 10.992H254.504V13.02H244.962ZM259.05 12.006C259.05 10.602 259.318 9.458 259.856 8.574C260.393 7.69 261.086 7.03133 261.936 6.598C262.785 6.16467 263.678 5.948 264.614 5.948V8.288C263.834 8.288 263.088 8.40933 262.378 8.652C261.684 8.87733 261.112 9.25867 260.662 9.796C260.228 10.316 260.012 11.0267 260.012 11.928L259.05 12.006ZM257.542 19V6H260.012V19H257.542Z" fill="#181818"/>
</svg>
